<?xml version="1.0" encoding="utf-8"?>
<!-- Generator: Adobe Illustrator 28.3.0, SVG Export Plug-In . SVG Version: 6.00 Build 0)  -->
<svg version="1.1" id="Layer_1" xmlns="http://www.w3.org/2000/svg" xmlns:xlink="http://www.w3.org/1999/xlink" x="0px" y="0px"
	 viewBox="0 0 90 90.33" style="enable-background:new 0 0 90 90.33;" xml:space="preserve">
<style type="text/css">
	.st0{fill:#A54760;}
	.st1{fill:#FE9232;}
	.st2{opacity:0.58;}
	.st3{fill:#F2F2F2;}
	.st4{fill:#80C41C;}
	.st5{opacity:0.2;fill:#999999;}
	.st6{opacity:0.3;fill:#999999;}
	.st7{opacity:0.46;fill:#999999;}
	.st8{fill:#A6DEEB;}
	.st9{fill:#FF4000;}
	.st10{opacity:0.36;fill:#999999;}
	.st11{fill:#12491D;}
	.st12{opacity:0.85;fill:#F2F2F2;}
	.st13{fill:#00A0C6;}
	.st14{fill:#FECF48;}
	.st15{opacity:0.48;fill:#EFDDE6;}
	.st16{opacity:0.54;fill:#FFFFB5;}
	.st17{fill:#F6DEC6;}
	.st18{fill:#FEA621;}
	.st19{fill:#7C3843;}
	.st20{fill:#E5E5E5;}
	.st21{fill:#F75E8A;}
	.st22{fill:#1A9539;}
	.st23{opacity:0.67;}
	.st24{fill:#F2F2A0;}
	.st25{fill:#2DABA4;}
	.st26{fill:#C24753;}
	.st27{fill:#FFFFDB;}
	.st28{fill:#F2F2DC;}
	.st29{fill:#FCC0B7;}
	.st30{fill:#6FB5CF;}
	.st31{fill:#BDE0E8;}
	.st32{fill:#FFFFFF;}
	.st33{fill:#DCECEF;}
	.st34{fill:#1EC14F;}
	.st35{fill:#A0642F;}
	.st36{fill:#FC4D2A;}
	.st37{fill:#015E5F;}
	.st38{fill:#FEE1B8;}
	.st39{opacity:0.61;}
	.st40{fill:#82C965;}
	.st41{fill:#835FAB;}
	.st42{fill:#FFF054;}
	.st43{fill:#604B3B;}
	.st44{fill:#989291;}
	.st45{fill:#FEDCA8;}
	.st46{fill:#824448;}
	.st47{opacity:0.28;fill:#FFFFFF;}
	.st48{opacity:0.09;fill:#FFFFFF;}
	.st49{fill:#CCCCCC;}
	.st50{fill:#83D0E3;}
	.st51{fill:#B0E2ED;}
	.st52{fill:#D9F1F6;}
	.st53{fill:#A2CFDA;}
	.st54{fill:#6A878E;}
	.st55{fill:#FFEB4F;}
	.st56{fill:#73B019;}
	.st57{fill:#69A017;}
	.st58{fill:#A1D315;}
	.st59{fill:#926636;}
	.st60{fill:#FBBF59;}
	.st61{fill:#FBD062;}
	.st62{fill:#7AC11D;}
	.st63{fill:#FEE16C;}
	.st64{fill:#FFF29F;}
	.st65{fill:#E7CC62;}
	.st66{fill:#FFB815;}
	.st67{opacity:0.19;fill:#DB951D;}
	.st68{fill:#FFF26D;}
	.st69{fill:#74B219;}
	.st70{fill:#72AE19;}
	.st71{opacity:0.25;fill:#999999;}
</style>
<g>
	<circle class="st34" cx="45" cy="45.16" r="45"/>
	<g>
		<path class="st9" d="M42.14,29.28c-7.76-0.97-16.16-3.35-20.28,5.65c-1.97,4.91-1.91,10.9-0.38,15.98
			c3.57,14.84,13.51,18.4,24.56,18.4c15,0,23.54-12.09,23.58-25.39C69.8,36.06,66,29.61,58.28,28.36
			C52.16,27.32,48.54,29.42,42.14,29.28L42.14,29.28z"/>
		<path class="st10" d="M43.93,34.21c-7.24,0-12.46-2.87-11.92-4.05c0.63-1.38,5.97,0.28,6.96,0.47c1.68,0.26,3.15,0.54,4.83,0.49
			c1.81-0.06,1.51-0.06,3.32-0.32c1.36-0.22,3-1.4,4.18-0.45C52.55,31.37,49.51,34.21,43.93,34.21z"/>
		<path class="st35" d="M44.13,23.77c-0.4,1.66-0.84,3.18-0.92,4.88c-0.06,1.54,0.09,3.2,0.25,4.82c-0.41,0.01-0.82-0.04-1.17-0.19
			c-0.55-3.7-0.07-7.92-0.34-11.22c0.15-0.97,0.8-1.21,1.56-0.94C44.68,21.5,44.38,22.94,44.13,23.77z"/>
		<path class="st12" d="M64.86,36.24c0,1.9-2.41,1.55-3.41,1.1c-1.51-0.6-6.47-1.36-7.44-2.63c-1.44-1.81,1.21-2.41,2.48-4.23
			c1.42-1.9,5.78,0.91,7.03,2.85C64.52,34.88,64.89,35.25,64.86,36.24z"/>
		<path class="st10" d="M65.42,58.96C61.5,65.12,54.9,69.31,46.08,69.31c-11.06,0-20.98-3.56-24.56-18.41
			c-1.53-5.07-1.6-11.06,0.37-15.98c1.21-2.61,2.76-4.27,4.57-5.26c-0.3,1.05-0.6,2.09-0.69,3.15c-0.34,3.06-0.17,6.1,0.37,9.16
			c0.91,5.56,4.31,11.15,8.62,14.73C42.69,63.29,55.46,63.48,65.42,58.96z"/>
	</g>
	<path class="st7" d="M61.19,63.89L35.85,89.23C18.44,85.63,4.71,71.98,0.99,54.61l22.98-22.98c-0.79,0.87-1.49,1.96-2.1,3.29
		c-1.98,4.92-1.91,10.9-0.38,15.98c2.57,10.67,8.42,15.51,15.62,17.38c0.01,0,0.02,0,0.02,0c0.62,0.17,1.26,0.31,1.91,0.43
		c2.26,0.42,4.62,0.59,7.04,0.59c0.46,0,0.91-0.01,1.36-0.04c0.46-0.02,0.91-0.05,1.35-0.1c0.43-0.04,0.85-0.09,1.26-0.16
		c0.02,0,0.03,0,0.05-0.01c0.43-0.06,0.86-0.14,1.27-0.24c0.42-0.08,0.83-0.18,1.23-0.29c0.41-0.1,0.8-0.22,1.19-0.36
		c0.4-0.12,0.78-0.26,1.16-0.42c1.13-0.44,2.2-0.97,3.21-1.59c0.34-0.18,0.67-0.4,0.99-0.63C59.86,64.99,60.54,64.46,61.19,63.89z"
		/>
</g>
</svg>
