<?xml version="1.0" encoding="utf-8"?>
<!-- Generator: Adobe Illustrator 28.3.0, SVG Export Plug-In . SVG Version: 6.00 Build 0)  -->
<svg version="1.1" id="Layer_1" xmlns="http://www.w3.org/2000/svg" xmlns:xlink="http://www.w3.org/1999/xlink" x="0px" y="0px"
	 viewBox="0 0 90 90.33" style="enable-background:new 0 0 90 90.33;" xml:space="preserve">
<style type="text/css">
	.st0{fill:#A54760;}
	.st1{fill:#FE9232;}
	.st2{opacity:0.58;}
	.st3{fill:#F2F2F2;}
	.st4{fill:#80C41C;}
	.st5{opacity:0.2;fill:#999999;}
	.st6{opacity:0.3;fill:#999999;}
	.st7{opacity:0.46;fill:#999999;}
	.st8{fill:#A6DEEB;}
	.st9{fill:#FF4000;}
	.st10{opacity:0.36;fill:#999999;}
	.st11{fill:#12491D;}
	.st12{opacity:0.85;fill:#F2F2F2;}
	.st13{fill:#00A0C6;}
	.st14{fill:#FECF48;}
	.st15{opacity:0.48;fill:#EFDDE6;}
	.st16{opacity:0.54;fill:#FFFFB5;}
	.st17{fill:#F6DEC6;}
	.st18{fill:#FEA621;}
	.st19{fill:#7C3843;}
	.st20{fill:#E5E5E5;}
	.st21{fill:#F75E8A;}
	.st22{fill:#1A9539;}
	.st23{opacity:0.67;}
	.st24{fill:#F2F2A0;}
	.st25{fill:#2DABA4;}
	.st26{fill:#C24753;}
	.st27{fill:#FFFFDB;}
	.st28{fill:#F2F2DC;}
	.st29{fill:#FCC0B7;}
	.st30{fill:#6FB5CF;}
	.st31{fill:#BDE0E8;}
	.st32{fill:#FFFFFF;}
	.st33{fill:#DCECEF;}
	.st34{fill:#1EC14F;}
	.st35{fill:#A0642F;}
	.st36{fill:#FC4D2A;}
	.st37{fill:#015E5F;}
	.st38{fill:#FEE1B8;}
	.st39{opacity:0.61;}
	.st40{fill:#82C965;}
	.st41{fill:#835FAB;}
	.st42{fill:#FFF054;}
	.st43{fill:#604B3B;}
	.st44{fill:#989291;}
	.st45{fill:#FEDCA8;}
	.st46{fill:#824448;}
	.st47{opacity:0.28;fill:#FFFFFF;}
	.st48{opacity:0.09;fill:#FFFFFF;}
	.st49{fill:#CCCCCC;}
	.st50{fill:#83D0E3;}
	.st51{fill:#B0E2ED;}
	.st52{fill:#D9F1F6;}
	.st53{fill:#A2CFDA;}
	.st54{fill:#6A878E;}
	.st55{fill:#FFEB4F;}
	.st56{fill:#73B019;}
	.st57{fill:#69A017;}
	.st58{fill:#A1D315;}
	.st59{fill:#926636;}
	.st60{fill:#FBBF59;}
	.st61{fill:#FBD062;}
	.st62{fill:#7AC11D;}
	.st63{fill:#FEE16C;}
	.st64{fill:#FFF29F;}
	.st65{fill:#E7CC62;}
	.st66{fill:#FFB815;}
	.st67{opacity:0.19;fill:#DB951D;}
	.st68{fill:#FFF26D;}
	.st69{fill:#74B219;}
	.st70{fill:#72AE19;}
	.st71{opacity:0.25;fill:#999999;}
</style>
<g>
	<circle class="st13" cx="45" cy="45.08" r="45"/>
	<g>
		<path class="st42" d="M24.34,39.2c-0.03,0.01-0.04,0.02-0.04,0.04c0.22-0.05,0.46-0.1,0.69-0.17l0.02,0
			c0.45-0.12,0.91-0.27,1.33-0.46c-0.52,0.02-1.01,0.11-1.43,0.3l-0.01-0.02c-0.04,0.02-0.08,0.03-0.12,0.06
			c-0.05,0-0.1,0.04-0.16,0.08C24.52,39.08,24.43,39.13,24.34,39.2z"/>
		<path class="st42" d="M24.68,46.93c0.01,0.03,0.03,0.07,0.06,0.11c0.11,0.22,0.25,0.43,0.37,0.67c2.58,4.35,7.75,9.05,15.46,11.01
			l0.03,0.01c1.93,0.5,4.03,0.83,6.29,0.92c4.8,0.22,8.83-0.41,12.15-1.52l0.01,0c2.29-0.76,4.25-1.73,5.9-2.79
			c5.26-3.32,7.56-7.54,7.92-8.59c0.36-1.06,0.43-2.78,0.43-2.78l0.41-1.09c-0.3,0.05-0.62,0.09-0.84-0.02
			c-0.08-0.05-0.18-0.13-0.27-0.26c-0.06-0.06-0.12-0.15-0.17-0.24c-0.09-0.13-0.15-0.25-0.21-0.31l-0.01-0.02
			c-0.22-0.29-0.26-0.51-0.52-0.74c-0.21-0.19-0.44-0.31-0.6-0.53c-0.05-0.06-0.08-0.11-0.11-0.16l-0.69,0.17
			c0,0-1.21-0.48-2.91-0.06c-2.26,0.55-19.02,13.67-37.65-1.03c-0.95-0.75-2.24-1.1-3.38-1.07c-0.52,0.02-1.01,0.11-1.43,0.3
			c-0.05,0-0.08,0.03-0.13,0.05c-0.05,0-0.1,0.04-0.16,0.08c-0.1,0.04-0.19,0.09-0.28,0.16c-0.03,0.01-0.04,0.02-0.04,0.04
			c-0.07,0.04-0.14,0.1-0.19,0.17c-0.03,0.01-0.05,0.03-0.09,0.06C22.75,40.77,22.98,43.69,24.68,46.93z"/>
		<path class="st43" d="M70.96,40.61c0.03,0.05,0.06,0.11,0.11,0.16c0.16,0.22,0.39,0.35,0.6,0.53c0.26,0.23,0.3,0.45,0.52,0.74
			c0.13,0.21,0.44,0.71,0.67,0.82c0.21,0.11,0.54,0.07,0.84,0.02l0.26-0.71l-1.84-1.85L70.96,40.61z"/>
		<path class="st43" d="M63.34,59.96c0.01,0.06,0.03,0.12,0.05,0.19c0.09,0.26-0.18,0.64-0.03,0.9c0.18,0.32,0.59,0.37,0.7,0.72
			c0.06,0.24,0.02,1.31,0.2,1.52c0.17,0.2,0.7,0.2,0.99-0.07l0.48-0.46l-1.19-2.46L63.34,59.96z"/>
		<path class="st42" d="M13.22,26.18c-0.2,0.84-0.07,1.88,0.39,2.36c0.44,0.49,2.56,0.6,2.55,1.17c0,0.57-1,5.86-0.22,8.42
			c0.14-0.6,0.34-1.11,0.59-1.54l0-0.01c0.23-0.38,0.48-0.69,0.77-0.91c0.11-0.08,0.21-0.14,0.34-0.21
			c0.11-0.07,0.24-0.11,0.35-0.14c0.1-0.02,0.19-0.03,0.29-0.04c0.22-0.04,0.45-0.03,0.69,0.01c0.02-0.01,0.03-0.01,0.04-0.01
			l0,0.02c1.52,0.22,3.45,1.46,4.45,3.08l0.56,0.9c0.09-0.02,0.17-0.03,0.27-0.06c0-0.01,0.01-0.03,0.04-0.04
			c0.08-0.07,0.18-0.14,0.28-0.16c0.06-0.05,0.11-0.08,0.16-0.08c0.04-0.04,0.09-0.04,0.12-0.06l0.01,0.02
			c0.42-0.19,0.91-0.28,1.43-0.3c0.07-0.02,0.12-0.05,0.17-0.07c-1.57-1.32-1.62-3.49-1.76-5.32c-0.15-1.36,0.04-2.93,0.85-3.09
			c0.46-2.26-0.91-2.21-3.06-3.09c-1.97-0.84-3.97-1.97-6.07-2.27C13.5,25.25,13.42,25.36,13.22,26.18z"/>
		<path class="st10" d="M13.23,26.17c-0.2,0.84-0.07,1.88,0.39,2.35c0.44,0.5,2.56,0.6,2.55,1.17c0,0.57-1,5.86-0.22,8.42
			c0.14-0.6,0.34-1.11,0.59-1.54l0.52-0.69c-0.26-1.42-0.09-2.5,0.09-4.08c0.04-0.55,0.46-1.96,0.21-2.5
			c-0.33-0.53-0.82-0.31-1.05-0.93c-0.01-0.02-0.02-0.05-0.03-0.08c-0.21-0.71,0.15-2.69,0.17-3.54
			C13.51,25.24,13.42,25.34,13.23,26.17z"/>
		<path class="st10" d="M19.65,35.46c0.39-0.12,0.83,0.14,1.28,0.58c0.99,0.55,1.94,1.39,2.54,2.36l0.55,0.88
			c0.06,0.01,0.1,0.04,0.15,0.05c-0.03,0.02-0.05,0.04-0.08,0.06c-0.02,0.03-0.05,0.05-0.08,0.07c-1.27,1.31-1.04,4.23,0.66,7.47
			c0.02,0.04,0.03,0.05,0.06,0.07c0,0.01,0,0.01,0.01,0.03c0.11,0.22,0.25,0.43,0.37,0.67c2.56,4.31,7.71,8.98,15.33,10.96
			l0.03,0.01c1.96,0.51,4.1,0.84,6.41,0.95c4.77,0.22,8.77-0.41,12.08-1.5c2.32-0.75,4.29-1.72,5.98-2.79
			c5.26-3.32,7.56-7.54,7.92-8.59c0.36-1.06,0.43-2.78,0.43-2.78l0.41-1.09l0-0.02c-0.3,0.05-0.63,0.09-0.84-0.01
			c-0.03-0.01-0.04-0.03-0.07-0.05c-0.07-0.05-0.14-0.11-0.21-0.2c-0.06-0.08-0.13-0.17-0.17-0.24c-0.09-0.13-0.15-0.25-0.21-0.31
			c-3.87,4.65-11.33,7.27-16.7,8.45c-6.33,1.27-11.97,1.19-18.08-1.12c-5.05-1.82-9.84-5.53-12.42-10.33l-0.02,0
			c-0.03-0.05-0.05-0.1-0.08-0.16l-0.01-0.02c-0.22-0.94-2.82-3.52-3.04-4.45c-0.27-1.24,0.24-4.17-1.11-4.08
			C20,32,19.88,33.75,19.65,35.46z"/>
		<path class="st42" d="M15.95,38.13C15.1,41.6,16,47.72,19.82,53.78c0.2,0.32,0.41,0.64,0.62,0.96c1.09,1.58,2.37,3.15,3.88,4.65
			c0.61,0.6,1.24,1.18,1.92,1.76c1.69,1.46,3.63,2.82,5.82,4.05c5.94,3.36,11.23,4.69,15.71,4.95c0.66,0.03,1.3,0.05,1.92,0.04
			c0.32,0,0.63,0,0.94-0.02c1.83-0.08,3.47-0.33,4.93-0.68c0.26-0.06,0.49-0.11,0.72-0.18c1.4-0.38,2.61-0.84,3.62-1.29
			c0.41-0.19,0.8-0.38,1.14-0.56c0.33-0.2,0.64-0.36,0.91-0.53c0.64-0.41,1.06-0.74,1.24-0.93c0.69-0.7,1.32-2.09,1.32-2.09
			l0.75-0.7c-0.3-0.12-0.64-0.24-0.8-0.45c-0.01-0.02-0.02-0.04-0.03-0.05c-0.01-0.02-0.02-0.04-0.03-0.05
			c-0.05-0.07-0.08-0.16-0.12-0.25c-0.05-0.1-0.08-0.18-0.1-0.28c-0.06-0.15-0.09-0.28-0.11-0.37c-0.11-0.36-0.08-0.56-0.26-0.88
			c-0.15-0.26-0.32-0.48-0.41-0.74c-0.03-0.07-0.03-0.13-0.05-0.19l-0.74-0.21c0,0-1.03-1.01-2.81-1.52
			c-0.17-0.06-0.42-0.08-0.76-0.11l-0.01,0c-0.02,0-0.03-0.01-0.06,0c-4.51-0.34-22.5,0.21-34.86-18.73c0,0,0-0.01-0.01-0.02
			c-0.02-0.04-0.04-0.07-0.07-0.09l-0.56-0.9c-0.6-0.97-1.55-1.81-2.54-2.36c-0.42-0.26-0.86-0.46-1.28-0.58
			c-0.21-0.06-0.43-0.12-0.63-0.15l-0.04-0.01c-0.23-0.03-0.48-0.04-0.69-0.01c-0.09,0.01-0.2,0.03-0.3,0.05
			c-0.11,0.04-0.25,0.08-0.35,0.13c-0.12,0.06-0.23,0.13-0.34,0.21c-0.29,0.22-0.54,0.52-0.77,0.91l0,0.01
			C16.28,37.02,16.09,37.53,15.95,38.13z"/>
		<path class="st10" d="M15.95,38.13C15.1,41.6,16,47.72,19.82,53.78c0.2,0.32,0.41,0.64,0.62,0.96c1.09,1.58,2.37,3.15,3.88,4.65
			c0.61,0.6,1.24,1.18,1.92,1.76c1.69,1.46,3.63,2.82,5.82,4.05c5.94,3.36,11.23,4.69,15.71,4.95c0.66,0.03,1.3,0.05,1.92,0.04
			c0.32,0,0.63,0,0.94-0.02c1.83-0.08,3.47-0.33,4.93-0.68c0.26-0.06,0.49-0.11,0.72-0.18c1.4-0.38,2.61-0.84,3.62-1.29
			c0.41-0.19,0.8-0.38,1.14-0.56c0.33-0.2,0.64-0.36,0.91-0.53c0.64-0.41,1.06-0.74,1.24-0.93c0.69-0.7,1.32-2.09,1.32-2.09
			l0.75-0.7l0.02-0.01c-0.32-0.12-0.65-0.24-0.82-0.45c-0.01-0.02-0.02-0.02-0.04-0.04c-0.01-0.02-0.02-0.04-0.03-0.05
			c-0.05-0.07-0.08-0.16-0.12-0.25c-0.05-0.1-0.08-0.18-0.1-0.28c-0.04-0.15-0.07-0.27-0.1-0.37l-0.02,0
			c-5.26,1.93-13.39,0.33-19-1.39c-1.56-0.5-3.03-1.04-4.47-1.65l-0.03-0.01c-0.04-0.01-0.07-0.03-0.1-0.04l-0.03-0.01
			c-4.62-1.97-8.69-4.54-12.62-8.33c-1.1-1.03-2.13-2.15-3.09-3.34c-0.02-0.02-0.04-0.04-0.06-0.07c-1.75-2.16-3.23-4.54-4.26-7
			c-0.64-1.52-1.12-3.08-1.39-4.61l0-0.02c-0.01,0-0.03,0-0.04,0.01c-0.25-0.04-0.47-0.05-0.69-0.01c-0.1,0-0.2,0.01-0.29,0.04
			c-0.11,0.03-0.25,0.08-0.35,0.14c-0.12,0.06-0.23,0.13-0.34,0.21c-0.29,0.22-0.54,0.52-0.77,0.91l0,0.01
			C16.28,37.02,16.09,37.53,15.95,38.13z"/>
		<path class="st44" d="M13.39,27.24c-0.08,0.92,0.78,0.27,1.37,0.32c0.4,0.05,0.88,0.3,1.08-0.17c0.19-0.5,0.05-1.31,0.14-1.83
			c-0.06-0.01-0.48-0.16-0.55-0.15c-0.5,0-1.38,0.11-1.83,0.38C13.19,26.08,13.43,26.78,13.39,27.24z"/>
	</g>
	<path class="st7" d="M63.11,66.09L39.47,89.74C17.23,87.02,0,68.06,0,45.08c0-2.21,0.16-4.38,0.47-6.51L13.4,25.65
		c0,0.01-0.01,0.02-0.01,0.02c-0.02,0.04-0.04,0.07-0.05,0.11c-0.02,0.04-0.03,0.08-0.04,0.12c-0.03,0.08-0.05,0.16-0.07,0.26
		c-0.01,0.01-0.01,0.01-0.01,0.02c-0.02,0.1-0.04,0.2-0.05,0.3c-0.06,0.47-0.03,0.97,0.09,1.38c0.08,0.27,0.2,0.51,0.36,0.68
		c0.44,0.49,2.56,0.6,2.54,1.17c0,0.23-0.16,1.2-0.3,2.45c-0.21,1.9-0.38,4.41,0.09,5.95c0,0.01,0,0.01,0,0.02
		C15.1,41.6,16,47.72,19.82,53.77c0.2,0.32,0.41,0.64,0.62,0.96c1.09,1.59,2.37,3.15,3.88,4.66c0.62,0.59,1.25,1.18,1.92,1.76
		c1.7,1.45,3.64,2.82,5.82,4.05c5.94,3.36,11.23,4.7,15.71,4.95c0.66,0.03,1.3,0.05,1.92,0.05c0.32-0.01,0.63-0.01,0.94-0.03
		c1.83-0.08,3.47-0.32,4.93-0.68c0.25-0.06,0.49-0.11,0.72-0.17c1.4-0.38,2.6-0.84,3.62-1.29c0.4-0.19,0.8-0.39,1.14-0.56
		c0.33-0.2,0.64-0.36,0.91-0.53C62.51,66.58,62.9,66.28,63.11,66.09z"/>
</g>
</svg>
