<?xml version="1.0" encoding="utf-8"?>
<!-- Generator: Adobe Illustrator 28.3.0, SVG Export Plug-In . SVG Version: 6.00 Build 0)  -->
<svg version="1.1" id="Layer_1" xmlns="http://www.w3.org/2000/svg" xmlns:xlink="http://www.w3.org/1999/xlink" x="0px" y="0px"
	 viewBox="0 0 90 90.33" style="enable-background:new 0 0 90 90.33;" xml:space="preserve">
<style type="text/css">
	.st0{fill:#A54760;}
	.st1{fill:#FE9232;}
	.st2{opacity:0.58;}
	.st3{fill:#F2F2F2;}
	.st4{fill:#80C41C;}
	.st5{opacity:0.2;fill:#999999;}
	.st6{opacity:0.3;fill:#999999;}
	.st7{opacity:0.46;fill:#999999;}
	.st8{fill:#A6DEEB;}
	.st9{fill:#FF4000;}
	.st10{opacity:0.36;fill:#999999;}
	.st11{fill:#12491D;}
	.st12{opacity:0.85;fill:#F2F2F2;}
	.st13{fill:#00A0C6;}
	.st14{fill:#FECF48;}
	.st15{opacity:0.48;fill:#EFDDE6;}
	.st16{opacity:0.54;fill:#FFFFB5;}
	.st17{fill:#F6DEC6;}
	.st18{fill:#FEA621;}
	.st19{fill:#7C3843;}
	.st20{fill:#E5E5E5;}
	.st21{fill:#F75E8A;}
	.st22{fill:#1A9539;}
	.st23{opacity:0.67;}
	.st24{fill:#F2F2A0;}
	.st25{fill:#2DABA4;}
	.st26{fill:#C24753;}
	.st27{fill:#FFFFDB;}
	.st28{fill:#F2F2DC;}
	.st29{fill:#FCC0B7;}
	.st30{fill:#6FB5CF;}
	.st31{fill:#BDE0E8;}
	.st32{fill:#FFFFFF;}
	.st33{fill:#DCECEF;}
	.st34{fill:#1EC14F;}
	.st35{fill:#A0642F;}
	.st36{fill:#FC4D2A;}
	.st37{fill:#015E5F;}
	.st38{fill:#FEE1B8;}
	.st39{opacity:0.61;}
	.st40{fill:#82C965;}
	.st41{fill:#835FAB;}
	.st42{fill:#FFF054;}
	.st43{fill:#604B3B;}
	.st44{fill:#989291;}
	.st45{fill:#FEDCA8;}
	.st46{fill:#824448;}
	.st47{opacity:0.28;fill:#FFFFFF;}
	.st48{opacity:0.09;fill:#FFFFFF;}
	.st49{fill:#CCCCCC;}
	.st50{fill:#83D0E3;}
	.st51{fill:#B0E2ED;}
	.st52{fill:#D9F1F6;}
	.st53{fill:#A2CFDA;}
	.st54{fill:#6A878E;}
	.st55{fill:#FFEB4F;}
	.st56{fill:#73B019;}
	.st57{fill:#69A017;}
	.st58{fill:#A1D315;}
	.st59{fill:#926636;}
	.st60{fill:#FBBF59;}
	.st61{fill:#FBD062;}
	.st62{fill:#7AC11D;}
	.st63{fill:#FEE16C;}
	.st64{fill:#FFF29F;}
	.st65{fill:#E7CC62;}
	.st66{fill:#FFB815;}
	.st67{opacity:0.19;fill:#DB951D;}
	.st68{fill:#FFF26D;}
	.st69{fill:#74B219;}
	.st70{fill:#72AE19;}
	.st71{opacity:0.25;fill:#999999;}
</style>
<g>
	<circle class="st62" cx="45" cy="45.28" r="45"/>
	<g>
		<path class="st63" d="M24.13,45.35c0,9.59,1.45,18.12,3.7,23.6h34.32c2.26-5.48,3.71-14.01,3.71-23.6c0-9.58-1.45-18.12-3.71-23.6
			H27.83C25.58,27.23,24.13,35.77,24.13,45.35z"/>
		<path class="st10" d="M24.13,45.35c0,9.59,1.45,18.12,3.7,23.6c2.26-5.48,3.71-14.01,3.71-23.6c0-9.58-1.45-18.12-3.71-23.6
			C25.58,27.23,24.13,35.77,24.13,45.35z"/>
		<polygon class="st64" points="27.83,17.79 27.83,21.75 62.16,21.75 62.16,17.66 60.72,18.34 59.5,17.66 58.07,18.34 56.84,17.66 
			55.41,18.34 54.18,17.66 52.75,18.34 51.53,17.66 50.1,18.34 48.87,17.66 47.43,18.34 46.22,17.66 44.78,18.34 43.55,17.66 
			42.12,18.34 40.89,17.66 39.46,18.34 38.24,17.66 36.81,18.34 35.58,17.66 34.14,18.34 32.93,17.66 31.49,18.34 30.26,17.66 
			28.83,18.34 		"/>
		<polygon class="st65" points="27.83,72.92 27.83,68.95 62.16,68.95 62.16,73.05 60.72,72.37 59.5,73.05 58.07,72.37 56.84,73.05 
			55.41,72.37 54.18,73.05 52.75,72.37 51.53,73.05 50.1,72.37 48.87,73.05 47.43,72.37 46.22,73.05 44.78,72.37 43.55,73.05 
			42.12,72.37 40.89,73.05 39.46,72.37 38.24,73.05 36.81,72.37 35.58,73.05 34.14,72.37 32.93,73.05 31.49,72.37 30.26,73.05 
			28.83,72.37 		"/>
		<path class="st18" d="M35.55,53.14c0,7.35,5.96,13.3,13.31,13.3c7.35,0,13.31-5.96,13.31-13.3c0-7.35-5.96-13.31-13.31-13.31
			C41.5,39.83,35.55,45.79,35.55,53.14z"/>
		<g>
			<path class="st41" d="M40.69,58.91c0.04,0.11,0.07,0.2,0.09,0.28c0.02,0.07,0.03,0.14,0.04,0.19c0.01,0.05,0.01,0.1,0.01,0.14
				c0,0.04-0.02,0.09-0.05,0.16c-0.03,0.07-0.1,0.16-0.19,0.27c-0.1,0.11-0.21,0.23-0.35,0.34c-0.13,0.11-0.29,0.22-0.46,0.32
				c-0.17,0.1-0.35,0.19-0.54,0.26c-0.43,0.16-0.84,0.23-1.22,0.22c-0.38-0.01-0.73-0.11-1.06-0.29c-0.32-0.18-0.61-0.44-0.86-0.77
				c-0.25-0.33-0.47-0.75-0.64-1.23c-0.21-0.56-0.31-1.07-0.32-1.53c-0.01-0.46,0.06-0.87,0.22-1.23c0.15-0.36,0.38-0.67,0.67-0.92
				c0.3-0.26,0.65-0.46,1.06-0.61c0.17-0.06,0.34-0.1,0.51-0.14c0.17-0.03,0.34-0.04,0.5-0.04c0.16,0,0.31,0.01,0.44,0.03
				c0.13,0.02,0.23,0.05,0.29,0.08c0.06,0.03,0.11,0.06,0.14,0.08c0.03,0.02,0.06,0.06,0.09,0.11c0.03,0.05,0.06,0.1,0.09,0.18
				s0.07,0.16,0.11,0.26c0.09,0.24,0.13,0.42,0.12,0.54c-0.01,0.11-0.04,0.18-0.11,0.21c-0.07,0.03-0.16,0.02-0.26-0.01
				c-0.1-0.03-0.22-0.06-0.35-0.09c-0.14-0.03-0.29-0.05-0.46-0.05c-0.17,0-0.36,0.03-0.57,0.11c-0.41,0.15-0.67,0.42-0.77,0.82
				c-0.1,0.4-0.04,0.9,0.18,1.51c0.11,0.3,0.23,0.56,0.37,0.77c0.14,0.21,0.29,0.37,0.46,0.49c0.16,0.12,0.34,0.18,0.53,0.2
				c0.19,0.02,0.39-0.01,0.61-0.09c0.22-0.08,0.39-0.18,0.53-0.3c0.13-0.12,0.24-0.25,0.33-0.37c0.09-0.12,0.16-0.23,0.22-0.32
				c0.06-0.09,0.11-0.15,0.16-0.17c0.04-0.01,0.07-0.02,0.11,0c0.03,0.01,0.07,0.04,0.1,0.09c0.03,0.05,0.07,0.12,0.11,0.21
				C40.59,58.66,40.63,58.77,40.69,58.91z"/>
			<path class="st41" d="M47.51,57.43c0.02,0.04,0.02,0.09,0,0.12c-0.01,0.04-0.05,0.08-0.1,0.12c-0.05,0.04-0.13,0.09-0.22,0.14
				c-0.1,0.05-0.22,0.1-0.38,0.15c-0.16,0.06-0.29,0.1-0.39,0.13c-0.11,0.03-0.19,0.04-0.26,0.04c-0.07,0-0.12-0.01-0.15-0.03
				c-0.04-0.02-0.06-0.05-0.08-0.1l-1.17-3.2c-0.1-0.27-0.2-0.48-0.29-0.62c-0.1-0.14-0.2-0.25-0.32-0.34
				c-0.12-0.08-0.25-0.13-0.39-0.15c-0.14-0.02-0.29,0-0.45,0.06c-0.2,0.07-0.38,0.22-0.53,0.44c-0.15,0.22-0.29,0.51-0.41,0.88
				l1.36,3.73c0.02,0.04,0.02,0.08,0,0.12c-0.01,0.04-0.05,0.08-0.1,0.12c-0.05,0.04-0.13,0.09-0.23,0.14
				c-0.1,0.05-0.22,0.1-0.38,0.16c-0.16,0.06-0.28,0.1-0.39,0.12c-0.1,0.02-0.19,0.04-0.26,0.04c-0.07,0-0.12-0.01-0.16-0.03
				c-0.04-0.02-0.06-0.05-0.08-0.1l-3.02-8.27c-0.02-0.04-0.02-0.08,0-0.13c0.01-0.04,0.05-0.09,0.1-0.13
				c0.05-0.04,0.13-0.09,0.22-0.14c0.1-0.05,0.22-0.1,0.38-0.16c0.16-0.06,0.29-0.1,0.39-0.12c0.11-0.03,0.19-0.04,0.26-0.04
				c0.07,0,0.12,0.01,0.16,0.04c0.04,0.02,0.06,0.06,0.08,0.1l1.13,3.1c0.17-0.37,0.38-0.67,0.61-0.9c0.24-0.23,0.51-0.41,0.81-0.52
				c0.38-0.14,0.73-0.19,1.03-0.16c0.31,0.03,0.58,0.12,0.82,0.28c0.24,0.16,0.45,0.37,0.63,0.64c0.18,0.27,0.34,0.61,0.49,1.02
				L47.51,57.43z"/>
			<path class="st41" d="M48.03,48.73c0.12,0.32,0.13,0.56,0.05,0.73c-0.09,0.17-0.3,0.32-0.66,0.45c-0.36,0.13-0.62,0.16-0.78,0.08
				c-0.17-0.07-0.31-0.26-0.42-0.57c-0.12-0.32-0.13-0.56-0.05-0.73c0.08-0.17,0.3-0.32,0.66-0.45c0.35-0.13,0.61-0.16,0.78-0.08
				C47.78,48.24,47.92,48.43,48.03,48.73z M50.65,56.29c0.02,0.04,0.02,0.08,0,0.12c-0.01,0.04-0.05,0.08-0.1,0.12
				c-0.05,0.04-0.13,0.09-0.23,0.14c-0.1,0.05-0.22,0.1-0.38,0.16c-0.16,0.06-0.29,0.1-0.39,0.12c-0.1,0.03-0.19,0.04-0.26,0.04
				c-0.07,0-0.12-0.01-0.16-0.03c-0.04-0.02-0.06-0.05-0.08-0.1l-2.04-5.6c-0.02-0.04-0.02-0.08,0-0.12
				c0.01-0.04,0.05-0.08,0.1-0.13c0.05-0.05,0.13-0.09,0.22-0.14c0.1-0.05,0.22-0.1,0.38-0.16c0.15-0.06,0.28-0.1,0.39-0.12
				c0.1-0.03,0.19-0.04,0.26-0.04c0.07,0,0.12,0.01,0.16,0.04c0.04,0.02,0.06,0.05,0.08,0.1L50.65,56.29z"/>
			<path class="st41" d="M56.82,50.76c0.18,0.5,0.29,0.97,0.33,1.41c0.04,0.44,0.01,0.84-0.1,1.19c-0.1,0.36-0.28,0.67-0.53,0.93
				c-0.25,0.26-0.57,0.47-0.97,0.61c-0.16,0.06-0.32,0.1-0.47,0.12c-0.15,0.02-0.3,0.02-0.45,0c-0.15-0.02-0.31-0.05-0.47-0.1
				c-0.16-0.05-0.33-0.12-0.51-0.2l0.96,2.64c0.02,0.04,0.02,0.08,0.01,0.13c-0.01,0.04-0.05,0.09-0.1,0.13
				c-0.05,0.05-0.13,0.09-0.22,0.14c-0.1,0.05-0.22,0.1-0.38,0.16c-0.15,0.06-0.28,0.1-0.39,0.12c-0.11,0.02-0.19,0.04-0.26,0.03
				c-0.07,0-0.12-0.01-0.16-0.04c-0.04-0.02-0.06-0.06-0.08-0.1l-2.86-7.84c-0.02-0.04-0.02-0.08-0.01-0.12
				c0.01-0.04,0.03-0.08,0.08-0.12c0.05-0.04,0.11-0.08,0.19-0.12c0.08-0.04,0.19-0.09,0.32-0.13c0.13-0.05,0.23-0.08,0.32-0.1
				c0.09-0.02,0.16-0.03,0.22-0.03c0.06,0,0.11,0.01,0.14,0.04c0.03,0.02,0.06,0.06,0.07,0.1l0.24,0.66
				c0.1-0.23,0.21-0.43,0.32-0.62c0.11-0.19,0.23-0.35,0.36-0.5c0.13-0.15,0.28-0.27,0.44-0.38c0.16-0.11,0.34-0.19,0.54-0.27
				c0.41-0.15,0.79-0.2,1.14-0.14c0.35,0.06,0.67,0.19,0.95,0.41c0.28,0.21,0.54,0.49,0.76,0.83
				C56.48,49.96,56.67,50.34,56.82,50.76z M55.22,51.48c-0.09-0.24-0.19-0.46-0.3-0.67c-0.12-0.21-0.25-0.38-0.4-0.52
				c-0.15-0.14-0.31-0.24-0.49-0.29c-0.18-0.05-0.37-0.04-0.58,0.04c-0.11,0.04-0.2,0.09-0.29,0.16c-0.09,0.07-0.18,0.16-0.26,0.27
				c-0.08,0.11-0.16,0.24-0.23,0.4c-0.07,0.15-0.14,0.34-0.21,0.55l0.67,1.85c0.32,0.2,0.62,0.34,0.87,0.42
				c0.26,0.08,0.49,0.08,0.71,0c0.21-0.07,0.36-0.19,0.47-0.35c0.11-0.16,0.17-0.34,0.2-0.54c0.03-0.2,0.03-0.42-0.01-0.65
				C55.35,51.91,55.29,51.69,55.22,51.48z"/>
			<path class="st41" d="M62.45,50.19c0.12,0.32,0.16,0.62,0.13,0.91c-0.03,0.29-0.12,0.55-0.28,0.79
				c-0.16,0.24-0.37,0.46-0.64,0.65c-0.27,0.19-0.58,0.35-0.92,0.48c-0.21,0.08-0.42,0.13-0.62,0.17c-0.2,0.04-0.39,0.06-0.56,0.07
				c-0.17,0.01-0.31,0-0.43-0.01c-0.12-0.01-0.21-0.04-0.27-0.06c-0.06-0.03-0.12-0.08-0.18-0.17c-0.06-0.08-0.12-0.22-0.19-0.4
				c-0.04-0.12-0.08-0.22-0.09-0.3c-0.02-0.08-0.03-0.14-0.03-0.19c0-0.05,0.01-0.09,0.03-0.11c0.02-0.02,0.05-0.04,0.09-0.06
				c0.05-0.02,0.12-0.02,0.23,0c0.11,0.02,0.24,0.04,0.4,0.05c0.16,0.01,0.33,0.02,0.53,0c0.2-0.01,0.41-0.06,0.64-0.14
				c0.14-0.05,0.26-0.11,0.36-0.18c0.1-0.07,0.18-0.15,0.25-0.23c0.06-0.08,0.1-0.18,0.11-0.27c0.01-0.1,0-0.2-0.04-0.31
				c-0.04-0.13-0.12-0.22-0.23-0.28c-0.11-0.06-0.24-0.1-0.39-0.12c-0.15-0.02-0.32-0.03-0.5-0.03c-0.18,0-0.37,0-0.57-0.01
				c-0.2-0.01-0.39-0.03-0.59-0.06c-0.2-0.03-0.38-0.09-0.56-0.18c-0.18-0.09-0.34-0.21-0.48-0.37c-0.14-0.16-0.27-0.37-0.36-0.64
				c-0.1-0.27-0.13-0.53-0.11-0.8c0.03-0.26,0.11-0.51,0.24-0.74c0.14-0.23,0.33-0.44,0.58-0.63c0.25-0.19,0.55-0.35,0.9-0.48
				c0.18-0.06,0.35-0.11,0.53-0.15c0.17-0.04,0.34-0.06,0.48-0.07c0.15-0.01,0.28-0.01,0.38,0c0.11,0.01,0.19,0.03,0.24,0.04
				c0.05,0.02,0.09,0.04,0.12,0.06c0.03,0.03,0.05,0.06,0.08,0.1c0.02,0.04,0.05,0.09,0.08,0.16c0.03,0.06,0.06,0.14,0.1,0.24
				c0.04,0.11,0.07,0.21,0.09,0.28c0.02,0.07,0.03,0.13,0.03,0.18c0,0.05-0.01,0.08-0.03,0.11c-0.02,0.02-0.05,0.04-0.08,0.05
				c-0.04,0.01-0.1,0.01-0.2,0c-0.1-0.01-0.21-0.03-0.35-0.03c-0.14-0.01-0.29,0-0.46,0.01c-0.18,0.01-0.36,0.06-0.56,0.13
				c-0.14,0.05-0.26,0.11-0.36,0.18c-0.09,0.07-0.16,0.14-0.21,0.22c-0.05,0.08-0.07,0.16-0.08,0.25c-0.01,0.09,0,0.17,0.04,0.25
				c0.05,0.13,0.13,0.23,0.24,0.28c0.11,0.06,0.25,0.1,0.4,0.12c0.16,0.02,0.33,0.03,0.51,0.03c0.19,0,0.38,0,0.57,0.01
				c0.2,0.01,0.39,0.03,0.59,0.06c0.2,0.03,0.39,0.09,0.57,0.18c0.18,0.09,0.34,0.21,0.49,0.37C62.23,49.73,62.35,49.93,62.45,50.19
				z"/>
		</g>
	</g>
	<path class="st7" d="M62.16,73.05L44.93,90.28C20.23,90.24,0.18,70.29,0,45.62l27.83-27.83v3.96c-2.25,5.48-3.7,14.02-3.7,23.6
		c0,9.59,1.45,18.12,3.7,23.6v3.97l1-0.55l1.43,0.68l1.23-0.68l1.44,0.68l1.21-0.68l1.44,0.68l1.23-0.68l1.43,0.68l1.22-0.68
		l1.43,0.68l1.23-0.68l1.43,0.68l1.23-0.68l1.44,0.68l1.21-0.68l1.44,0.68l1.23-0.68l1.43,0.68l1.22-0.68l1.43,0.68l1.23-0.68
		l1.43,0.68l1.23-0.68l1.43,0.68l1.22-0.68L62.16,73.05z"/>
</g>
</svg>
