<?xml version="1.0" encoding="utf-8"?>
<!-- Generator: Adobe Illustrator 28.3.0, SVG Export Plug-In . SVG Version: 6.00 Build 0)  -->
<svg version="1.1" id="Layer_1" xmlns="http://www.w3.org/2000/svg" xmlns:xlink="http://www.w3.org/1999/xlink" x="0px" y="0px"
	 viewBox="0 0 90 90" style="enable-background:new 0 0 90 90;" xml:space="preserve">
<style type="text/css">
	.st0{fill:#A54760;}
	.st1{fill:#FE9232;}
	.st2{opacity:0.58;}
	.st3{fill:#F2F2F2;}
	.st4{fill:#80C41C;}
	.st5{opacity:0.2;fill:#999999;}
	.st6{opacity:0.3;fill:#999999;}
	.st7{opacity:0.46;fill:#999999;}
	.st8{fill:#A6DEEB;}
	.st9{fill:#FF4000;}
	.st10{opacity:0.36;fill:#999999;}
	.st11{fill:#12491D;}
	.st12{opacity:0.85;fill:#F2F2F2;}
	.st13{fill:#00A0C6;}
	.st14{fill:#FECF48;}
	.st15{opacity:0.48;fill:#EFDDE6;}
	.st16{opacity:0.54;fill:#FFFFB5;}
	.st17{fill:#F6DEC6;}
	.st18{fill:#FEA621;}
	.st19{fill:#7C3843;}
	.st20{fill:#E5E5E5;}
	.st21{fill:#F75E8A;}
	.st22{fill:#1A9539;}
	.st23{opacity:0.67;}
	.st24{fill:#F2F2A0;}
	.st25{fill:#2DABA4;}
	.st26{fill:#C24753;}
	.st27{fill:#FFFFDB;}
	.st28{fill:#F2F2DC;}
	.st29{fill:#FCC0B7;}
	.st30{fill:#6FB5CF;}
	.st31{fill:#BDE0E8;}
	.st32{fill:#FFFFFF;}
	.st33{fill:#DCECEF;}
	.st34{fill:#1EC14F;}
	.st35{fill:#A0642F;}
	.st36{fill:#FC4D2A;}
	.st37{fill:#015E5F;}
	.st38{fill:#FEE1B8;}
	.st39{opacity:0.61;}
	.st40{fill:#82C965;}
	.st41{fill:#835FAB;}
	.st42{fill:#FFF054;}
	.st43{fill:#604B3B;}
	.st44{fill:#989291;}
	.st45{fill:#FEDCA8;}
	.st46{fill:#824448;}
	.st47{opacity:0.28;fill:#FFFFFF;}
	.st48{opacity:0.09;fill:#FFFFFF;}
	.st49{fill:#CCCCCC;}
	.st50{fill:#83D0E3;}
	.st51{fill:#B0E2ED;}
	.st52{fill:#D9F1F6;}
	.st53{fill:#A2CFDA;}
	.st54{fill:#6A878E;}
	.st55{fill:#FFEB4F;}
	.st56{fill:#73B019;}
	.st57{fill:#69A017;}
	.st58{fill:#A1D315;}
	.st59{fill:#926636;}
	.st60{fill:#FBBF59;}
	.st61{fill:#FBD062;}
	.st62{fill:#7AC11D;}
	.st63{fill:#FEE16C;}
	.st64{fill:#FFF29F;}
	.st65{fill:#E7CC62;}
	.st66{fill:#FFB815;}
	.st67{opacity:0.19;fill:#DB951D;}
	.st68{fill:#FFF26D;}
	.st69{fill:#74B219;}
	.st70{fill:#72AE19;}
	.st71{opacity:0.25;fill:#999999;}
</style>
<g>
	<circle class="st18" cx="45" cy="45" r="45"/>
	<g>
		<path class="st19" d="M65.27,36.5c0-4.16-3.37-7.53-7.53-7.53H32.78c-4.16,0-7.53,3.37-7.53,7.53v28.63
			c0,4.16,3.37,7.53,7.53,7.53h24.96c4.16,0,7.53-3.37,7.53-7.53V36.5z"/>
		<path class="st20" d="M62.86,28.27c0.88-1.23,2.91-1.14,4.24-1.04c1.88,0.14,3.83,0.6,5.48,1.54c1.41,0.8,1.89,2.2,0.35,3.21
			c-1.64,1.07-3.73,0.19-5.22-0.69c-1.71-1-3.26-2.29-4.93-3.36c-0.43-0.28-0.98-0.37-1.49-0.3c-0.21,0.03-0.89,0.27-0.45,0.55
			c3.72,2.41,7.46,6,12.29,5.03c1.23-0.25,2.69-0.91,3-2.25c0.2-0.84-0.51-1.6-1.1-2.08c-2.04-1.65-5.09-2.23-7.63-2.48
			c-1.94-0.19-5.32-0.38-6.64,1.44C60.39,28.34,62.49,28.79,62.86,28.27L62.86,28.27z"/>
		<path class="st20" d="M62.7,28.71c1.17-2.25,2.36-4.7,4.19-6.49c0.76-0.74,1.83-1.08,2.85-1.27c0.55-0.1,1.11-0.11,1.66-0.06
			c0.15,0.02,0.29,0.04,0.44,0.08c0.57,0.22,0.42,0.07-0.44-0.45c0.25,0.28,0.32,0.74,0.33,1.1c0.06,2.26-3.5,3.45-5.25,3.8
			c-1.07,0.21-2.15,0.41-3.2,0.69c-0.76,0.2-2.01,0.48-2.37,1.29C60.76,27.75,62.66,28.79,62.7,28.71c0.38-0.88,1.79-1.14,2.61-1.35
			c1.27-0.34,2.57-0.52,3.85-0.82c1.99-0.47,5.89-2.8,3.75-5.17c-1.82-2.01-4.43-2.24-6.81-1.14c-1.28,0.59-2.15,1.97-2.89,3.11
			c-0.85,1.3-1.58,2.69-2.3,4.07C60.75,27.71,62.64,28.83,62.7,28.71L62.7,28.71z"/>
		<path class="st21" d="M63.89,31.92c-0.58-0.81-1.51-0.58-2.2,0c-1.51-2.09-2.09-0.23-3.59,0c-1.16,0.23-2.2-0.81-3.36-1.04
			c-1.74-0.23-2.43,1.16-3.94,1.51c-1.74,0.35-2.67-1.05-4.17-1.51c-1.28-0.35-2.9-0.23-4.18,0.35c-0.81,0.35-1.28,1.28-2.44,1.04
			c-0.81-0.23-1.28-1.16-2.2-1.39c-2.2-0.58-2.67,1.04-4.18,1.39c-1.62,0.35-2.32-1.51-3.71-1.97c-0.35,0.7-2.79,1.62-3.25,0.7
			c-0.03-0.07-0.04-0.15-0.03-0.23c0.05-0.05,0.1-0.1,0.15-0.15c0.33-0.78,1.78-1.97,1.97-2.63c0.37-1.42-0.37-2.5-0.84-3.64
			c0,0,0-0.01-0.01-0.01c-0.28-0.53-0.44-1.13-0.44-1.77c0-1.03,0.42-1.96,1.09-2.63c0.67-0.67,1.6-1.09,2.63-1.09h27.62
			c2.05,0,3.72,1.66,3.72,3.72c0,0.48-0.09,0.93-0.25,1.35v0.01c-0.19,1.33-0.68,1.99-0.68,3.59c0,1.4,1.44,2.57,2.05,3.54l0,0
			c0.03,0.04,0.07,0.08,0.1,0.11C63.86,31.43,63.93,31.68,63.89,31.92z"/>
		<path class="st3" d="M62.18,28.31c0,0.12-0.1,0.22-0.22,0.22H28.55c-0.12,0-0.22-0.1-0.22-0.22v-2.15c0-0.12,0.1-0.22,0.22-0.22
			h33.41c0.12,0,0.22,0.1,0.22,0.22V28.31z"/>
		<path class="st20" d="M61.75,61.52c0,0.12-0.1,0.22-0.22,0.22H28.99c-0.12,0-0.22-0.1-0.22-0.22V41.04c0-0.12,0.1-0.22,0.22-0.22
			h32.53c0.12,0,0.22,0.1,0.22,0.22V61.52z"/>
		<g>
			<path class="st9" d="M39.51,57.45c0,0.36-0.03,0.65-0.09,0.87c-0.06,0.22-0.15,0.41-0.28,0.56c-0.13,0.15-0.28,0.27-0.47,0.34
				c-0.19,0.08-0.41,0.12-0.66,0.12c-0.14,0-0.26-0.01-0.36-0.03c-0.1-0.02-0.17-0.04-0.21-0.06c-0.04-0.02-0.07-0.05-0.09-0.08
				c-0.02-0.03-0.03-0.07-0.04-0.1c-0.01-0.04-0.01-0.08-0.02-0.13c0-0.05-0.01-0.11-0.01-0.19c0-0.09,0-0.17,0.01-0.24
				c0.01-0.06,0.02-0.11,0.03-0.15c0.01-0.04,0.03-0.06,0.05-0.08c0.02-0.02,0.04-0.03,0.07-0.03c0.02,0,0.05,0,0.11,0.01
				c0.05,0.01,0.11,0.01,0.17,0.01c0.09,0,0.17-0.01,0.23-0.04c0.07-0.03,0.12-0.07,0.16-0.13c0.04-0.06,0.07-0.14,0.09-0.23
				c0.02-0.09,0.03-0.24,0.03-0.45v-4.68c0-0.03,0.01-0.06,0.03-0.09c0.02-0.03,0.05-0.05,0.1-0.07c0.05-0.02,0.11-0.03,0.2-0.04
				c0.08-0.01,0.19-0.02,0.31-0.02c0.13,0,0.23,0,0.31,0.02c0.08,0.01,0.15,0.02,0.2,0.04c0.05,0.02,0.08,0.04,0.1,0.07
				c0.02,0.02,0.03,0.06,0.03,0.09V57.45z M39.6,51.18c0,0.26-0.05,0.44-0.16,0.54c-0.1,0.1-0.3,0.15-0.59,0.15
				c-0.29,0-0.48-0.05-0.58-0.14c-0.1-0.1-0.15-0.27-0.15-0.52c0-0.26,0.05-0.44,0.16-0.54c0.11-0.1,0.3-0.15,0.59-0.15
				c0.29,0,0.48,0.05,0.58,0.15C39.56,50.76,39.6,50.93,39.6,51.18z"/>
			<path class="st9" d="M44.69,57.31c0,0.05-0.02,0.08-0.05,0.11c-0.03,0.03-0.09,0.05-0.16,0.06c-0.07,0.01-0.18,0.02-0.33,0.02
				c-0.15,0-0.26-0.01-0.33-0.02c-0.07-0.01-0.12-0.03-0.15-0.06c-0.03-0.03-0.04-0.07-0.04-0.11v-0.36
				c-0.19,0.2-0.4,0.36-0.64,0.47c-0.24,0.11-0.51,0.17-0.8,0.17c-0.24,0-0.46-0.03-0.67-0.09c-0.2-0.06-0.38-0.16-0.53-0.28
				c-0.15-0.12-0.26-0.28-0.35-0.46c-0.08-0.18-0.12-0.4-0.12-0.64c0-0.27,0.05-0.5,0.16-0.69c0.11-0.19,0.26-0.36,0.47-0.48
				c0.21-0.13,0.46-0.22,0.77-0.28c0.31-0.06,0.66-0.09,1.07-0.09h0.45v-0.28c0-0.14-0.01-0.27-0.04-0.38
				c-0.03-0.11-0.08-0.2-0.14-0.27c-0.07-0.07-0.16-0.12-0.27-0.16c-0.11-0.03-0.25-0.05-0.41-0.05c-0.22,0-0.41,0.02-0.58,0.07
				c-0.17,0.05-0.32,0.1-0.45,0.16c-0.13,0.06-0.24,0.11-0.32,0.16c-0.09,0.05-0.16,0.07-0.21,0.07c-0.04,0-0.07-0.01-0.1-0.04
				c-0.03-0.02-0.05-0.06-0.07-0.1c-0.02-0.04-0.03-0.1-0.04-0.16c-0.01-0.06-0.02-0.14-0.02-0.21c0-0.11,0.01-0.19,0.03-0.25
				c0.01-0.06,0.05-0.12,0.09-0.17c0.05-0.05,0.13-0.1,0.25-0.16c0.12-0.06,0.26-0.11,0.42-0.17c0.16-0.05,0.34-0.09,0.52-0.13
				c0.19-0.03,0.38-0.05,0.59-0.05c0.36,0,0.66,0.04,0.92,0.11c0.25,0.07,0.46,0.18,0.63,0.32c0.16,0.15,0.28,0.33,0.36,0.56
				c0.08,0.23,0.11,0.5,0.11,0.81V57.31z M43.42,55.35h-0.49c-0.21,0-0.39,0.02-0.53,0.05c-0.15,0.03-0.27,0.08-0.36,0.14
				c-0.09,0.06-0.16,0.14-0.2,0.22c-0.04,0.09-0.07,0.19-0.07,0.3c0,0.19,0.06,0.34,0.18,0.45c0.12,0.11,0.29,0.16,0.5,0.16
				c0.18,0,0.35-0.05,0.5-0.14c0.15-0.09,0.31-0.23,0.46-0.4V55.35z"/>
			<path class="st9" d="M53.23,57.29c0,0.03-0.01,0.06-0.03,0.09c-0.02,0.03-0.05,0.05-0.1,0.06c-0.05,0.02-0.11,0.03-0.2,0.04
				c-0.08,0.01-0.19,0.01-0.31,0.01c-0.13,0-0.23,0-0.32-0.01c-0.08-0.01-0.15-0.02-0.2-0.04c-0.05-0.02-0.08-0.04-0.1-0.06
				c-0.02-0.03-0.03-0.06-0.03-0.09v-2.71c0-0.15-0.01-0.29-0.04-0.42c-0.03-0.13-0.07-0.23-0.13-0.32
				c-0.06-0.09-0.13-0.16-0.23-0.21c-0.09-0.05-0.2-0.07-0.33-0.07c-0.15,0-0.31,0.06-0.46,0.18c-0.16,0.12-0.33,0.29-0.51,0.52
				v3.04c0,0.03-0.01,0.06-0.03,0.09c-0.02,0.03-0.06,0.05-0.11,0.06c-0.05,0.02-0.12,0.03-0.2,0.04c-0.08,0.01-0.18,0.01-0.31,0.01
				c-0.13,0-0.23,0-0.31-0.01c-0.08-0.01-0.15-0.02-0.2-0.04c-0.05-0.02-0.08-0.04-0.1-0.06c-0.02-0.03-0.03-0.06-0.03-0.09v-2.71
				c0-0.15-0.01-0.29-0.04-0.42c-0.03-0.13-0.07-0.23-0.13-0.32c-0.06-0.09-0.13-0.16-0.23-0.21c-0.09-0.05-0.2-0.07-0.32-0.07
				c-0.16,0-0.32,0.06-0.47,0.18c-0.16,0.12-0.33,0.29-0.51,0.52v3.04c0,0.03-0.01,0.06-0.03,0.09c-0.02,0.03-0.06,0.05-0.1,0.06
				c-0.05,0.02-0.12,0.03-0.2,0.04c-0.08,0.01-0.19,0.01-0.31,0.01c-0.12,0-0.23,0-0.31-0.01c-0.08-0.01-0.15-0.02-0.2-0.04
				c-0.05-0.02-0.08-0.04-0.1-0.06c-0.02-0.03-0.03-0.06-0.03-0.09v-4.56c0-0.03,0.01-0.06,0.02-0.09c0.02-0.03,0.05-0.05,0.09-0.06
				c0.04-0.02,0.1-0.03,0.17-0.04c0.07-0.01,0.16-0.01,0.26-0.01c0.11,0,0.2,0,0.27,0.01c0.07,0.01,0.13,0.02,0.17,0.04
				c0.04,0.02,0.07,0.04,0.08,0.06c0.02,0.03,0.03,0.06,0.03,0.09v0.53c0.25-0.27,0.5-0.48,0.75-0.61c0.25-0.14,0.51-0.21,0.79-0.21
				c0.19,0,0.36,0.02,0.51,0.06c0.15,0.04,0.29,0.1,0.4,0.17c0.12,0.07,0.22,0.16,0.31,0.26c0.08,0.1,0.16,0.22,0.21,0.34
				c0.13-0.15,0.27-0.27,0.4-0.38c0.13-0.11,0.26-0.19,0.39-0.26c0.13-0.07,0.26-0.12,0.38-0.15c0.13-0.03,0.26-0.05,0.39-0.05
				c0.3,0,0.56,0.05,0.77,0.15c0.21,0.1,0.37,0.24,0.5,0.42c0.13,0.18,0.22,0.38,0.27,0.62c0.06,0.24,0.08,0.49,0.08,0.75V57.29z"/>
		</g>
		<g>
			<path class="st9" d="M45.02,43.36c-0.85-0.26-2.37-0.22-3.26,0c-1,0.25-1.58,1.83-1.41,2.56c0.38,1.53,1.54,2.55,2.63,3.63
				c0.74,0.7,1.26,0.73,2.23,0.59c0.38-0.06,0.7-0.15,1.09-0.09c0.41,0.09,0.59,0.21,1.03,0c0.97-0.44,2.03-1.5,2.35-2.5
				c0.26-0.82,0.65-1.91,0.47-2.79c-0.21-0.97-0.85-1.62-1.82-1.82C47.24,42.71,45.99,43.01,45.02,43.36L45.02,43.36z"/>
			<path class="st22" d="M46.35,44.26c-0.24,0.15-0.56,0.13-0.74,0.02c-0.21-0.14-0.25-0.23-0.45-0.37c-0.13-0.1-0.18-0.1-0.37,0.08
				c-0.23,0.21-0.21,0.2-0.43,0.33c-0.3,0.17-0.76,0.12-0.96-0.04c0.49,0.02,1.02-0.52,0.95-0.8c-0.03-0.07-0.52-0.23-0.62-0.27
				c-0.37-0.23-0.37-0.21-0.75-0.7c0.45,0.27,1.42,0.79,1.71,0.35c0.07-0.11,0.14-0.62,0.14-0.75c0.04-0.44,0-0.39,0-0.81
				c0.18,0.28,0.26,0.53,0.3,0.65c0.1,0.32,0.1,0.49,0.25,0.8c0.53-0.34,0.78-0.85,0.89-1.44c0.03,0.64-0.06,1.82-0.72,2.17
				C45.9,43.98,45.97,44.24,46.35,44.26z"/>
			<g class="st23">
				<path class="st24" d="M40.99,45.97c0.14,0.21,0.29,0.42,0.49,0.59c0.3,0.26,0.74-0.17,0.44-0.44c-0.16-0.14-0.28-0.29-0.39-0.47
					C41.3,45.33,40.77,45.64,40.99,45.97L40.99,45.97z"/>
			</g>
			<g class="st23">
				<path class="st24" d="M42.34,45.73c0.07,0.13,0.12,0.26,0.21,0.38c0.1,0.14,0.27,0.2,0.42,0.11c0.14-0.08,0.21-0.28,0.11-0.42
					c-0.08-0.12-0.14-0.25-0.21-0.38C42.7,45.06,42.17,45.38,42.34,45.73L42.34,45.73z"/>
			</g>
			<g class="st23">
				<path class="st24" d="M43.72,45.7c0.05,0.12,0.12,0.24,0.17,0.37c0.07,0.16,0.2,0.27,0.38,0.22c0.15-0.04,0.28-0.22,0.21-0.38
					c-0.07-0.17-0.16-0.34-0.24-0.51c-0.06-0.15-0.29-0.19-0.42-0.11C43.67,45.37,43.66,45.55,43.72,45.7L43.72,45.7z"/>
			</g>
			<g class="st23">
				<path class="st24" d="M44.99,45.57c0.03,0.09,0.06,0.18,0.09,0.27c0.12,0.37,0.72,0.21,0.59-0.16
					c-0.03-0.09-0.06-0.18-0.09-0.26C45.46,45.03,44.86,45.19,44.99,45.57L44.99,45.57z"/>
			</g>
			<g class="st23">
				<path class="st24" d="M46.41,45.28c0,0.08,0,0.16-0.02,0.24c-0.1,0.38,0.49,0.55,0.59,0.16c0.04-0.13,0.04-0.27,0.04-0.4
					C47.03,44.88,46.41,44.88,46.41,45.28L46.41,45.28z"/>
			</g>
			<g class="st23">
				<path class="st24" d="M48.07,45.17c-0.03,0.08-0.06,0.16-0.09,0.24c-0.13,0.38,0.46,0.53,0.6,0.16
					c0.03-0.08,0.06-0.15,0.09-0.23c0.06-0.16-0.06-0.34-0.21-0.38C48.28,44.91,48.12,45.01,48.07,45.17L48.07,45.17z"/>
			</g>
			<g class="st23">
				<path class="st24" d="M49.32,45.58c0.01-0.03,0.02-0.03,0-0.01c-0.27,0.3,0.17,0.73,0.43,0.44c0.12-0.13,0.17-0.25,0.18-0.42
					C49.97,45.18,49.35,45.18,49.32,45.58L49.32,45.58z"/>
			</g>
			<g class="st23">
				<path class="st24" d="M42.16,47.16c0.01,0.09,0.05,0.17,0.09,0.25c0.17,0.36,0.7,0.05,0.53-0.31c-0.02-0.03-0.03-0.07-0.03-0.1
					c-0.02-0.17-0.23-0.26-0.38-0.22C42.2,46.83,42.14,46.99,42.16,47.16L42.16,47.16z"/>
			</g>
			<g class="st23">
				<path class="st24" d="M43.3,46.93c0.01,0.17,0.07,0.31,0.16,0.45c0.22,0.33,0.75,0.02,0.53-0.31c-0.03-0.04-0.07-0.09-0.08-0.14
					C43.88,46.53,43.27,46.53,43.3,46.93L43.3,46.93z"/>
			</g>
			<g class="st23">
				<path class="st24" d="M44.75,46.7c-0.04,0.22-0.02,0.44,0.17,0.59c0.13,0.11,0.31,0.13,0.44,0c0.11-0.11,0.13-0.33,0-0.44
					c-0.08-0.07-0.02,0.04-0.01,0.01c0.03-0.17-0.04-0.33-0.21-0.38C44.98,46.44,44.78,46.53,44.75,46.7L44.75,46.7z"/>
			</g>
			<g class="st23">
				<path class="st24" d="M45.83,46.97c0.01,0.01,0.03,0.03,0.04,0.04c-0.03-0.05-0.05-0.09-0.08-0.14c0,0.01,0.01,0.03,0.02,0.04
					c0.06,0.16,0.2,0.26,0.38,0.22c0.15-0.04,0.28-0.22,0.21-0.38c-0.04-0.09-0.07-0.15-0.14-0.22
					C45.99,46.24,45.56,46.68,45.83,46.97L45.83,46.97z"/>
			</g>
			<g class="st23">
				<path class="st24" d="M47.19,46.52c-0.03,0.18-0.04,0.35-0.04,0.52c0,0.4,0.62,0.4,0.62,0c0-0.12,0-0.24,0.02-0.36
					c0.03-0.16-0.04-0.33-0.22-0.38C47.42,46.27,47.22,46.36,47.19,46.52L47.19,46.52z"/>
			</g>
			<g class="st23">
				<path class="st24" d="M48.57,46.63c-0.19,0.1-0.37,0.21-0.53,0.34c-0.13,0.1-0.11,0.33,0,0.44c0.13,0.13,0.3,0.1,0.44,0
					c0.13-0.1,0.27-0.17,0.41-0.25C49.23,46.98,48.92,46.45,48.57,46.63L48.57,46.63z"/>
			</g>
			<g class="st23">
				<path class="st24" d="M42.66,48.17c0.06,0.09,0.1,0.18,0.15,0.26c0.21,0.34,0.74,0.03,0.53-0.31c-0.05-0.09-0.09-0.18-0.15-0.26
					C42.99,47.52,42.46,47.83,42.66,48.17L42.66,48.17z"/>
			</g>
			<g class="st23">
				<path class="st24" d="M43.77,48.41c0.03,0.04,0.06,0.08,0.09,0.12c0.11,0.13,0.33,0.11,0.44,0c0.13-0.13,0.1-0.3,0-0.44
					c-0.03-0.04-0.06-0.08-0.09-0.12c-0.1-0.13-0.33-0.11-0.44,0C43.64,48.1,43.67,48.28,43.77,48.41L43.77,48.41z"/>
			</g>
			<g class="st23">
				<path class="st24" d="M45.01,48.13c0.03,0.09,0.06,0.18,0.09,0.26c0.12,0.38,0.72,0.22,0.6-0.16c-0.03-0.09-0.06-0.18-0.09-0.26
					C45.48,47.59,44.89,47.75,45.01,48.13L45.01,48.13z"/>
			</g>
			<g class="st23">
				<path class="st24" d="M46.47,47.9c0,0.15,0.01,0.29,0.04,0.43c0.08,0.39,0.68,0.23,0.59-0.16c-0.02-0.09-0.02-0.18-0.02-0.27
					C47.09,47.5,46.47,47.5,46.47,47.9L46.47,47.9z"/>
			</g>
			<g class="st23">
				<path class="st24" d="M47.45,48.01c-0.03,0.04-0.03,0.05-0.01,0.04c-0.32,0.22-0.02,0.76,0.31,0.53
					c0.1-0.07,0.17-0.15,0.23-0.26C48.17,47.96,47.64,47.65,47.45,48.01L47.45,48.01z"/>
			</g>
			<g class="st23">
				<path class="st24" d="M43.8,49.53c0.12,0.1,0.23,0.17,0.37,0.23c0.16,0.06,0.34-0.07,0.38-0.22c0.05-0.18-0.06-0.32-0.21-0.38
					c-0.04-0.02-0.07-0.04-0.1-0.07C43.94,48.82,43.51,49.26,43.8,49.53L43.8,49.53z"/>
			</g>
			<g class="st23">
				<path class="st24" d="M44.74,49.41c0.04,0.04,0.07,0.07,0.1,0.11c0.21,0.34,0.74,0.03,0.53-0.31c-0.05-0.09-0.12-0.16-0.2-0.24
					C44.9,48.69,44.46,49.12,44.74,49.41L44.74,49.41z"/>
			</g>
			<g class="st23">
				<path class="st24" d="M46,49.22c0-0.01,0.01-0.03,0.01-0.04c-0.19,0.35,0.34,0.66,0.53,0.31c0.05-0.09,0.07-0.17,0.07-0.27
					C46.63,48.82,46.01,48.82,46,49.22L46,49.22z"/>
			</g>
			<g class="st23">
				<path class="st24" d="M46.92,49.24c-0.02,0.02-0.04,0.04-0.06,0.06c-0.28,0.28,0.16,0.72,0.44,0.44
					c0.02-0.02,0.04-0.04,0.06-0.06C47.63,49.39,47.2,48.96,46.92,49.24L46.92,49.24z"/>
			</g>
			<g class="st23">
				<path class="st24" d="M41.74,44.27c-0.14,0.16-0.22,0.33-0.24,0.54c-0.03,0.4,0.59,0.4,0.62,0c0-0.04,0.03-0.07,0.06-0.1
					C42.45,44.41,42.01,43.98,41.74,44.27L41.74,44.27z"/>
			</g>
			<g class="st23">
				<path class="st24" d="M47.18,44.2c0,0.12,0.03,0.23,0.03,0.35c0.01,0.4,0.63,0.4,0.62,0c0-0.12-0.03-0.23-0.03-0.35
					C47.78,43.8,47.16,43.8,47.18,44.2L47.18,44.2z"/>
			</g>
			<g class="st23">
				<path class="st24" d="M48.53,44.4c0.1,0.07,0.16,0.16,0.21,0.27c0.07,0.15,0.29,0.19,0.42,0.11c0.16-0.09,0.18-0.27,0.11-0.42
					c-0.09-0.21-0.25-0.37-0.43-0.49C48.51,43.65,48.21,44.19,48.53,44.4L48.53,44.4z"/>
			</g>
		</g>
	</g>
	<path class="st7" d="M62.12,71.25L43.41,89.97c-23-0.8-41.61-18.86-43.29-41.62l28.42-28.42c-0.67,0.67-1.09,1.6-1.09,2.63
		c0,0.64,0.17,1.24,0.45,1.76c0,0.01,0,0.01,0,0.01c0.23,0.54,0.5,1.06,0.7,1.61h-0.05c-0.12,0-0.22,0.09-0.22,0.22v2.15
		c0,0.08,0.04,0.15,0.11,0.18c-0.49,0.67-1.41,1.52-1.66,2.12c-0.05,0.05-0.11,0.1-0.16,0.15c-0.01,0.08,0,0.16,0.04,0.23
		c0.11,0.23,0.34,0.34,0.63,0.37c-1.27,1.34-2.04,3.15-2.04,5.14v28.63c0,4.16,3.37,7.53,7.53,7.53h24.96
		C59.38,72.66,60.89,72.14,62.12,71.25z"/>
</g>
</svg>
