<?xml version="1.0" encoding="utf-8"?>
<!-- Generator: Adobe Illustrator 28.3.0, SVG Export Plug-In . SVG Version: 6.00 Build 0)  -->
<svg version="1.1" id="Layer_1" xmlns="http://www.w3.org/2000/svg" xmlns:xlink="http://www.w3.org/1999/xlink" x="0px" y="0px"
	 viewBox="0 0 90 90.33" style="enable-background:new 0 0 90 90.33;" xml:space="preserve">
<style type="text/css">
	.st0{fill:#A54760;}
	.st1{fill:#FE9232;}
	.st2{opacity:0.58;}
	.st3{fill:#F2F2F2;}
	.st4{fill:#80C41C;}
	.st5{opacity:0.2;fill:#999999;}
	.st6{opacity:0.3;fill:#999999;}
	.st7{opacity:0.46;fill:#999999;}
	.st8{fill:#A6DEEB;}
	.st9{fill:#FF4000;}
	.st10{opacity:0.36;fill:#999999;}
	.st11{fill:#12491D;}
	.st12{opacity:0.85;fill:#F2F2F2;}
	.st13{fill:#00A0C6;}
	.st14{fill:#FECF48;}
	.st15{opacity:0.48;fill:#EFDDE6;}
	.st16{opacity:0.54;fill:#FFFFB5;}
	.st17{fill:#F6DEC6;}
	.st18{fill:#FEA621;}
	.st19{fill:#7C3843;}
	.st20{fill:#E5E5E5;}
	.st21{fill:#F75E8A;}
	.st22{fill:#1A9539;}
	.st23{opacity:0.67;}
	.st24{fill:#F2F2A0;}
	.st25{fill:#2DABA4;}
	.st26{fill:#C24753;}
	.st27{fill:#FFFFDB;}
	.st28{fill:#F2F2DC;}
	.st29{fill:#FCC0B7;}
	.st30{fill:#6FB5CF;}
	.st31{fill:#BDE0E8;}
	.st32{fill:#FFFFFF;}
	.st33{fill:#DCECEF;}
	.st34{fill:#1EC14F;}
	.st35{fill:#A0642F;}
	.st36{fill:#FC4D2A;}
	.st37{fill:#015E5F;}
	.st38{fill:#FEE1B8;}
	.st39{opacity:0.61;}
	.st40{fill:#82C965;}
	.st41{fill:#835FAB;}
	.st42{fill:#FFF054;}
	.st43{fill:#604B3B;}
	.st44{fill:#989291;}
	.st45{fill:#FEDCA8;}
	.st46{fill:#824448;}
	.st47{opacity:0.28;fill:#FFFFFF;}
	.st48{opacity:0.09;fill:#FFFFFF;}
	.st49{fill:#CCCCCC;}
	.st50{fill:#83D0E3;}
	.st51{fill:#B0E2ED;}
	.st52{fill:#D9F1F6;}
	.st53{fill:#A2CFDA;}
	.st54{fill:#6A878E;}
	.st55{fill:#FFEB4F;}
	.st56{fill:#73B019;}
	.st57{fill:#69A017;}
	.st58{fill:#A1D315;}
	.st59{fill:#926636;}
	.st60{fill:#FBBF59;}
	.st61{fill:#FBD062;}
	.st62{fill:#7AC11D;}
	.st63{fill:#FEE16C;}
	.st64{fill:#FFF29F;}
	.st65{fill:#E7CC62;}
	.st66{fill:#FFB815;}
	.st67{opacity:0.19;fill:#DB951D;}
	.st68{fill:#FFF26D;}
	.st69{fill:#74B219;}
	.st70{fill:#72AE19;}
	.st71{opacity:0.25;fill:#999999;}
</style>
<g>
	<circle class="st55" cx="45" cy="45.33" r="45"/>
	<g>
		<path class="st56" d="M53.74,35.9c-2.36,4.85-6.58,8.61-9.09,13.16c-0.22-1.23-0.36-2.54-0.39-3.92c0.4-1.14,0.53-2.22,0.71-3.53
			c0.09-1.09,0.01-2.14-0.19-3.16v-0.01c1-5.79,3.37-11.69,6.8-15.78c0,0,0,0,0-0.01c0.89-1.04,3.31-2.83,4.84-2.83
			c-0.23,2.62,0.25,3.71,0.07,6.1C56.39,29.62,55.14,32.6,53.74,35.9z"/>
		<path class="st56" d="M44.79,38.43v0.01c-0.4,2.29-0.58,4.56-0.53,6.69C44,45.89,43.61,46.67,43,47.56
			c-7.53-5.79-8.31-21.07-11.28-27.76c2.72,0.38,4.17,2.67,5.72,4.64v0.01c1.79,2.26,3.58,4.54,4.85,7.13
			c0.35,0.8,0.7,1.58,1.04,2.37v0.01C43.94,35.43,44.49,36.9,44.79,38.43z"/>
		<path class="st57" d="M44.81,27.44c-0.22,1.8-0.8,4.15-1.49,6.52c-0.34-0.79-0.69-1.57-1.04-2.37c-1.26-2.59-3.06-4.87-4.85-7.13
			v-0.01c0-5.06,3.98-10.48,3.98-15.16c2.52,1.09,3.29,6.73,3.51,10.53C45.09,22.47,45,25.12,44.81,27.44z"/>
		<path class="st57" d="M51.59,22.64c0,0.01,0,0.01,0,0.01c-3.43,4.09-5.8,9.99-6.8,15.78c-0.3-1.53-0.85-3-1.47-4.46v-0.01
			c0.69-2.37,1.27-4.71,1.49-6.52c0.19-2.32,0.28-4.96,0.11-7.63c0.57-2.62,4.08-9.2,5.84-9.6C50.83,13.88,52.77,18.78,51.59,22.64z
			"/>
		<path class="st4" d="M47.5,38.86c-1.33,3.76-1.47,6.39-1.62,10.15c-0.94-2.03-1.81-4.07-2.82-6.1c-1.95-3.76-2.9-6.97-2.75-11.28
			c0.16-2.91,0.55-5.64,1.66-8.38c0.78-1.88,1.99-4.78,3.52-6.27c0.58,1.69,0.84,2.83,1.18,4.39c0.43,1.99,0.73,4,1.04,5.95
			C48.26,30.61,48.6,35.73,47.5,38.86z"/>
		<path class="st58" d="M56.07,36.93c-0.66,0.66-1.4,2.58-2.08,3.75c-0.05,0.09-1.07,1.78-1.37,2.59c-0.63,1.71-0.14,2.67-1.84,3.24
			c-1.79,0.58-5,0.39-6.98,0.39c-1.7,0-5.05-0.43-6.41-1.71c-0.39-1.31-0.31-1.88-0.79-3.16c-1.01-2.75-2.52-2.96-3.08-4.09
			c2.64-0.48,3.82-0.05,5.38,1.58c0.29-1.79,0.56-3.58,0.43-5.1c1.77,0,2.97,3.02,4.11,3.21c0.65,0.1,1.81-1.21,2.45-1.69
			c1.23-0.94,2.03-1.13,3.26-1.52c0.1,0.76-0.24,2.93,0.43,3.69C50.5,39.15,52.25,36.5,56.07,36.93z"/>
		<path class="st59" d="M61.5,60.28c0,11.02-7.4,17.96-16.5,17.96c-9.11,0-16.49-6.94-16.49-17.96c0-7.41,3.34-13.88,8.3-17.32
			c2.07-1.44,4.42-2.34,6.93-2.57c0.41-0.04,0.84-0.06,1.27-0.06c3.51,0,6.77,1.33,9.44,3.58c0.9,0.76,1.74,1.63,2.49,2.58
			c0.41,0.53,0.8,1.08,1.17,1.67c0.5,0.79,0.96,1.6,1.35,2.48l0.01,0.02C60.76,53.52,61.5,56.79,61.5,60.28z"/>
		<g>
			<path class="st60" d="M46.38,46.98c-0.01,0.01-0.01,0.01-0.01,0.01v-0.01H46.38z"/>
			<path class="st60" d="M41.93,61.47c-0.34,0.25-0.66,0.5-0.99,0.75c-1.4,1.08-2.76,2.16-4.02,3.26c-1.87-1.15-3.8-2.29-5.76-3.45
				c1.74-1.6,3.58-3.02,5.53-4.29C38.53,58.82,40.25,60.11,41.93,61.47z"/>
			<path class="st60" d="M43.73,45.05c-0.73,0.27-1.45,0.55-2.17,0.85c-0.44,0.17-0.88,0.35-1.3,0.54
				c-0.53,0.21-1.05,0.44-1.57,0.68c-1.09-0.59-2.19-1.14-3.3-1.68c0.72-0.35,1.43-0.69,2.17-1.01c0.73-0.34,1.46-0.67,2.22-0.98
				c0.34-0.14,0.66-0.28,1-0.4c0.01,0,0.01,0,0.01,0C41.78,43.71,42.75,44.37,43.73,45.05z"/>
			<path class="st60" d="M54.97,47.02c-1.14,0.48-2.28,0.94-3.42,1.4c-0.63-0.53-1.28-1.05-1.94-1.55c-0.59-0.45-1.19-0.9-1.79-1.33
				c1.49-0.48,2.99-0.9,4.51-1.28c0.11,0.11,0.23,0.22,0.35,0.35C53.47,45.37,54.24,46.19,54.97,47.02z"/>
			<path class="st60" d="M49.51,49.27c-1.47,0.6-2.92,1.23-4.35,1.87c-1.43-1.07-2.93-2.03-4.5-2.94c0.75-0.33,1.5-0.65,2.27-0.95
				c0.28-0.11,0.55-0.21,0.83-0.31h0.08c0.01-0.01,0.02-0.02,0.01-0.04h0.01c0.29-0.12,0.58-0.23,0.87-0.34
				c0.13-0.04,0.25-0.07,0.37-0.13c0.13-0.05,0.29-0.1,0.42-0.15c0.29,0.2,0.58,0.42,0.86,0.62v0.08h-0.01v0.01c0,0,0,0,0.01-0.01
				h0.1C47.5,47.72,48.52,48.48,49.51,49.27z"/>
			<path class="st60" d="M54.04,53.33c-1.37,0.74-2.71,1.54-4.02,2.38c-0.98-1.21-2.08-2.31-3.27-3.3c1.43-0.63,2.87-1.24,4.34-1.84
				h0.01c0.44,0.37,0.88,0.76,1.3,1.15C52.98,52.25,53.52,52.78,54.04,53.33z"/>
			<path class="st60" d="M58.42,51.19c-0.92,0.39-1.79,0.8-2.68,1.25h-0.01c-0.16-0.2-0.34-0.39-0.51-0.57
				c-0.69-0.74-1.4-1.43-2.13-2.09c1.05-0.43,2.1-0.87,3.17-1.29C57,49.36,57.73,50.26,58.42,51.19z"/>
			<path class="st60" d="M61.49,60.04c-0.18-0.29-0.35-0.57-0.55-0.84c0.16-0.11,0.34-0.23,0.51-0.33
				C61.48,59.26,61.49,59.63,61.49,60.04z"/>
			<path class="st60" d="M61.24,56.78c-0.49,0.21-0.98,0.45-1.46,0.71c-0.87-1.23-1.78-2.43-2.77-3.6c0.84-0.41,1.7-0.8,2.58-1.16
				c0.39,0.53,0.77,1.05,1.15,1.59c0,0,0,0,0,0.01C60.95,55.12,61.11,55.94,61.24,56.78z"/>
			<path class="st60" d="M60.97,65.16c-0.4,1.84-1.04,3.51-1.88,5c-0.49-0.88-0.99-1.76-1.49-2.62
				C58.67,66.67,59.8,65.9,60.97,65.16z"/>
			<path class="st60" d="M61.08,62.76c-1.59,0.88-3.18,1.79-4.59,2.9c-0.41-0.71-0.84-1.4-1.28-2.11c0.45-0.32,0.9-0.65,1.34-0.98
				c1.03-0.75,1.98-1.58,2.94-2.33C60.05,61.06,60.57,61.9,61.08,62.76z"/>
			<path class="st60" d="M58.24,58.4c-1.48,0.94-2.91,2.02-4.29,3.13c-0.86-1.39-1.77-2.76-2.68-4.14c-0.05-0.08-0.1-0.15-0.15-0.21
				c1.38-0.86,2.77-1.69,4.21-2.44C56.38,55.9,57.34,57.13,58.24,58.4z"/>
			<path class="st60" d="M52.54,62.72c-1.08,0.89-2.12,1.79-3.12,2.63c-1.35-1.39-2.85-2.68-4.39-3.91c0.01,0,0.01,0,0.02-0.01
				c1.45-1.1,2.93-2.17,4.42-3.18c0.44,0.55,0.86,1.13,1.27,1.73C51.36,60.89,51.95,61.8,52.54,62.72z"/>
			<path class="st60" d="M55.09,66.88c-0.55,0.54-1.07,1.13-1.52,1.77c-0.17,0.24-0.34,0.48-0.51,0.71
				c-0.74-0.89-1.52-1.75-2.29-2.61c0.98-0.73,1.97-1.43,2.96-2.14C54.18,65.36,54.65,66.12,55.09,66.88z"/>
			<path class="st60" d="M57.95,71.9c-0.46,0.64-0.98,1.24-1.54,1.78c-0.66-0.95-1.37-1.88-2.09-2.78c0.59-0.78,1.22-1.48,1.88-2.11
				C56.8,69.82,57.38,70.86,57.95,71.9z"/>
			<path class="st60" d="M55.09,74.88c-1.08,0.86-2.27,1.57-3.55,2.12c-0.29-0.33-0.59-0.64-0.89-0.95
				c0.85-1.21,1.72-2.42,2.59-3.66C53.88,73.19,54.51,74.02,55.09,74.88z"/>
			<path class="st60" d="M43.31,78.22c-1.22-0.13-2.4-0.37-3.51-0.74c0.24-0.41,0.5-0.8,0.78-1.2c0.92,0.64,1.82,1.29,2.69,1.92
				C43.28,78.21,43.29,78.21,43.31,78.22z"/>
			<path class="st60" d="M48.17,76.27c-0.45,0.63-0.88,1.28-1.29,1.93c-0.12,0.01-0.24,0.03-0.36,0.04c-0.28-0.2-0.55-0.4-0.84-0.6
				c-1.3-0.94-2.62-1.91-3.97-2.86c0.64-0.79,1.33-1.54,2.09-2.29C45.31,73.67,46.78,74.91,48.17,76.27z"/>
			<path class="st60" d="M51.99,70.84c-0.92,1.29-1.83,2.56-2.73,3.83c-1.3-1.23-2.66-2.39-4.06-3.5c0.51-0.46,1.06-0.93,1.63-1.39
				c0.8-0.67,1.62-1.3,2.45-1.93C50.21,68.81,51.11,69.81,51.99,70.84z"/>
			<path class="st60" d="M47.94,66.54c-0.21,0.17-0.42,0.34-0.64,0.5c-1.3,0.98-2.52,1.97-3.65,2.98C42,68.8,40.3,67.63,38.53,66.5
				c1.54-1.32,3.19-2.57,4.89-3.83c0.55,0.45,1.1,0.9,1.65,1.35C46.05,64.81,47.01,65.66,47.94,66.54z"/>
			<path class="st60" d="M35.46,66.79c-0.9,0.84-1.74,1.71-2.53,2.64c-0.97-0.45-1.94-0.86-2.94-1.2c-0.5-1.2-0.88-2.5-1.13-3.9
				c0.3-0.32,0.6-0.64,0.89-0.95C31.7,64.52,33.61,65.65,35.46,66.79z"/>
			<path class="st60" d="M39.02,75.2c-0.36,0.51-0.69,1.04-1,1.59c-2-0.93-3.8-2.27-5.26-3.98c0.21-0.35,0.45-0.69,0.7-1.02
				C35.37,72.8,37.23,73.97,39.02,75.2z"/>
			<path class="st60" d="M42.28,71.34c-0.76,0.75-1.48,1.54-2.13,2.36c-1.78-1.22-3.6-2.38-5.49-3.38c0.74-0.89,1.56-1.72,2.42-2.51
				C38.87,68.93,40.61,70.1,42.28,71.34z"/>
			<path class="st60" d="M36.46,48.17c-2.32,1.14-4.44,2.45-6.45,3.86c0.74-1.99,1.75-3.8,2.98-5.38c0.1-0.05,0.19-0.1,0.28-0.15
				C34.34,47.04,35.41,47.59,36.46,48.17z"/>
			<path class="st60" d="M34.85,56.75c-1.88,1.28-3.69,2.68-5.38,4.29c-0.33-0.19-0.64-0.38-0.97-0.55v-0.15
				c0-1.82,0.2-3.57,0.58-5.24v-0.01c0.29-0.21,0.59-0.44,0.89-0.65C31.56,55.26,33.24,55.96,34.85,56.75z"/>
			<path class="st60" d="M42.97,52.17c-2.16,1.03-4.25,2.14-6.27,3.38c-1.63-0.85-3.33-1.55-4.99-2.34
				c1.44-0.99,2.94-1.92,4.54-2.81c0.71-0.4,1.44-0.78,2.18-1.14C40,50.16,41.51,51.11,42.97,52.17z"/>
			<path class="st60" d="M48.29,56.85c-1.62,1.09-3.2,2.23-4.76,3.41c-1.37-1.04-2.76-2.06-4.11-3.05c-0.3-0.21-0.6-0.43-0.9-0.62
				c1.95-1.18,3.98-2.23,6.08-3.21C45.91,54.45,47.15,55.59,48.29,56.85z"/>
		</g>
		<path class="st61" d="M43.13,42.21l2.82,2.05l4.45-1.22c0,0-2.68-1.77-3.04-1.85C47.01,41.11,43.13,42.21,43.13,42.21z"/>
		<path class="st61" d="M56.92,46.49h-0.46l-2.29-2.51l0.26-0.07C55.33,44.67,56.17,45.54,56.92,46.49z"/>
		<path class="st61" d="M59.44,50.64l-1.86-2.48h0.5C58.59,48.95,59.05,49.76,59.44,50.64z"/>
		<path class="st61" d="M43.73,40.39c0,0-6.49,2.66-6.67,2.66l-0.26-0.09C38.87,41.52,41.22,40.61,43.73,40.39z"/>
	</g>
	<path class="st7" d="M55.09,74.87L39.92,90.04C19.13,87.71,2.62,71.2,0.28,50.41L41.41,9.28c0,4.68-3.98,10.1-3.98,15.16
		c-1.55-1.97-3-4.26-5.72-4.64c1.87,4.2,2.87,11.77,5.23,18.27c-0.89-0.38-1.92-0.4-3.43-0.13c0.57,1.13,2.07,1.34,3.09,4.09
		c0.12,0.33,0.21,0.61,0.27,0.87c-0.02,0.02-0.05,0.03-0.07,0.05c-4.66,3.24-7.91,9.18-8.26,16.04c-0.03,0.44-0.04,0.9-0.04,1.35
		v0.15c0.01,1.34,0.13,2.62,0.36,3.84c0.05,0.3,0.11,0.59,0.18,0.87c0.04,0.2,0.09,0.4,0.15,0.6c0.01,0.1,0.04,0.21,0.08,0.31
		c0.06,0.26,0.14,0.52,0.23,0.78c0.07,0.25,0.16,0.5,0.26,0.75c0.07,0.2,0.15,0.4,0.23,0.59c0.71,1.71,1.65,3.23,2.78,4.54
		c0,0.01-0.01,0.03-0.02,0.04c1.47,1.71,3.26,3.05,5.27,3.98c0.01-0.02,0.02-0.03,0.03-0.05c0.57,0.27,1.16,0.5,1.77,0.69
		c-0.01,0.02-0.02,0.03-0.03,0.05c1.12,0.37,2.3,0.61,3.52,0.74c-0.02-0.01-0.03-0.01-0.04-0.03c-0.02-0.02-0.05-0.03-0.07-0.05
		c0.59,0.06,1.19,0.09,1.79,0.09c0.48,0,0.96-0.02,1.43-0.06c0.03,0.02,0.06,0.04,0.09,0.06c0.13-0.01,0.24-0.02,0.37-0.04
		c0.01-0.02,0.03-0.05,0.05-0.07c1.6-0.18,3.13-0.58,4.56-1.19c0.01,0.02,0.03,0.04,0.05,0.06C52.82,76.44,54.01,75.74,55.09,74.87z
		"/>
</g>
</svg>
