<?xml version="1.0" encoding="utf-8"?>
<!-- Generator: Adobe Illustrator 28.3.0, SVG Export Plug-In . SVG Version: 6.00 Build 0)  -->
<svg version="1.1" id="Layer_1" xmlns="http://www.w3.org/2000/svg" xmlns:xlink="http://www.w3.org/1999/xlink" x="0px" y="0px"
	 viewBox="0 0 90 90.33" style="enable-background:new 0 0 90 90.33;" xml:space="preserve">
<style type="text/css">
	.st0{fill:#A54760;}
	.st1{fill:#FE9232;}
	.st2{opacity:0.58;}
	.st3{fill:#F2F2F2;}
	.st4{fill:#80C41C;}
	.st5{opacity:0.2;fill:#999999;}
	.st6{opacity:0.3;fill:#999999;}
	.st7{opacity:0.46;fill:#999999;}
	.st8{fill:#A6DEEB;}
	.st9{fill:#FF4000;}
	.st10{opacity:0.36;fill:#999999;}
	.st11{fill:#12491D;}
	.st12{opacity:0.85;fill:#F2F2F2;}
	.st13{fill:#00A0C6;}
	.st14{fill:#FECF48;}
	.st15{opacity:0.48;fill:#EFDDE6;}
	.st16{opacity:0.54;fill:#FFFFB5;}
	.st17{fill:#F6DEC6;}
	.st18{fill:#FEA621;}
	.st19{fill:#7C3843;}
	.st20{fill:#E5E5E5;}
	.st21{fill:#F75E8A;}
	.st22{fill:#1A9539;}
	.st23{opacity:0.67;}
	.st24{fill:#F2F2A0;}
	.st25{fill:#2DABA4;}
	.st26{fill:#C24753;}
	.st27{fill:#FFFFDB;}
	.st28{fill:#F2F2DC;}
	.st29{fill:#FCC0B7;}
	.st30{fill:#6FB5CF;}
	.st31{fill:#BDE0E8;}
	.st32{fill:#FFFFFF;}
	.st33{fill:#DCECEF;}
	.st34{fill:#1EC14F;}
	.st35{fill:#A0642F;}
	.st36{fill:#FC4D2A;}
	.st37{fill:#015E5F;}
	.st38{fill:#FEE1B8;}
	.st39{opacity:0.61;}
	.st40{fill:#82C965;}
	.st41{fill:#835FAB;}
	.st42{fill:#FFF054;}
	.st43{fill:#604B3B;}
	.st44{fill:#989291;}
	.st45{fill:#FEDCA8;}
	.st46{fill:#824448;}
	.st47{opacity:0.28;fill:#FFFFFF;}
	.st48{opacity:0.09;fill:#FFFFFF;}
	.st49{fill:#CCCCCC;}
	.st50{fill:#83D0E3;}
	.st51{fill:#B0E2ED;}
	.st52{fill:#D9F1F6;}
	.st53{fill:#A2CFDA;}
	.st54{fill:#6A878E;}
	.st55{fill:#FFEB4F;}
	.st56{fill:#73B019;}
	.st57{fill:#69A017;}
	.st58{fill:#A1D315;}
	.st59{fill:#926636;}
	.st60{fill:#FBBF59;}
	.st61{fill:#FBD062;}
	.st62{fill:#7AC11D;}
	.st63{fill:#FEE16C;}
	.st64{fill:#FFF29F;}
	.st65{fill:#E7CC62;}
	.st66{fill:#FFB815;}
	.st67{opacity:0.19;fill:#DB951D;}
	.st68{fill:#FFF26D;}
	.st69{fill:#74B219;}
	.st70{fill:#72AE19;}
	.st71{opacity:0.25;fill:#999999;}
</style>
<g>
	<circle class="st36" cx="45" cy="45.01" r="45"/>
	<g>
		<path class="st37" d="M54.56,44.82c0.01,0.07,0.02,0.13,0.02,0.21v31.94c0,0.83-0.74,1.52-1.66,1.52H37.09
			c-0.92,0-1.67-0.68-1.67-1.52V45.02c0-0.08,0.01-0.14,0.02-0.21v-0.01c-0.01-0.2-0.02-0.4-0.02-0.61c0-4.06,2.53-7.53,6.1-8.92
			V18.16h0.1c-0.44,0-0.79-0.45-0.79-1v-2.21c0-0.55,0.35-0.99,0.79-0.99h6.75c0.43,0,0.78,0.44,0.78,0.99v2.21
			c0,0.55-0.35,1-0.78,1h0.09v17.12c3.57,1.39,6.1,4.86,6.1,8.92C54.57,44.41,54.57,44.61,54.56,44.82L54.56,44.82z"/>
		<path class="st38" d="M47.73,10.98v2.97h-5.46v-2.97c0-0.46,0.38-0.83,0.83-0.83h3.8C47.36,10.15,47.73,10.52,47.73,10.98z"/>
		<g class="st39">
			<path class="st32" d="M40.42,37.01c-2.12,0.92-3.31,3.66-3.22,5.89c0.05,1.15,3.64,0.94,3.59-0.24
				c-0.06-1.61,0.85-3.55,2.27-4.54c0.45-0.32,0.29-0.91-0.15-1.21C42.19,36.4,41.21,36.67,40.42,37.01L40.42,37.01z"/>
		</g>
		<path class="st10" d="M53.91,44.82c0.01,0.07,0.02,0.13,0.02,0.21v31.94c0,0.83-0.74,1.52-1.67,1.52h-2.73
			c0.92,0,1.67-0.68,1.67-1.52V45.02c0-0.08-0.01-0.14-0.02-0.21v-0.01c0.01-0.2,0.02-0.4,0.02-0.61c0-4.06-2.53-7.53-6.1-8.92
			V18.16H45c0.43,0,0.78-0.45,0.78-1v-2.21c0-0.55-0.35-0.99-0.78-0.99h2.73c0.43,0,0.78,0.44,0.78,0.99v2.21c0,0.55-0.35,1-0.78,1
			h0.09v17.12c3.57,1.39,6.1,4.86,6.1,8.92C53.92,44.41,53.92,44.61,53.91,44.82L53.91,44.82z"/>
		<rect x="35.43" y="48.99" class="st32" width="19.15" height="18.42"/>
		<polygon class="st40" points="43.29,57.26 43.9,57.76 45,54.52 43.9,51.29 43.29,51.79 39.65,51.03 40.23,52.88 40.23,52.94 
			37,54.53 40.23,56.11 40.23,56.18 39.66,58.03 		"/>
		<polygon class="st40" points="46.7,57.27 46.1,57.76 45,54.53 46.1,51.3 46.71,51.8 50.35,51.04 49.77,52.89 49.77,52.95 
			53,54.54 49.77,56.12 49.77,56.18 50.34,58.03 		"/>
		<polygon class="st10" points="53,54.54 49.78,56.12 49.77,56.19 50.35,58.03 46.71,57.27 46.1,57.77 45,54.53 		"/>
		<polygon class="st10" points="37,54.54 40.23,56.11 40.23,56.18 39.65,58.03 43.29,57.26 43.9,57.77 45,54.53 		"/>
		<path class="st41" d="M43.27,56.61c0,0.99-0.8,1.79-1.79,1.79c-0.99,0-1.79-0.8-1.79-1.79c0-0.99,0.8-1.79,1.79-1.79
			C42.47,54.82,43.27,55.63,43.27,56.61z"/>
		<path class="st41" d="M47.09,56.61c0,0.99-0.8,1.79-1.79,1.79s-1.79-0.8-1.79-1.79c0-0.99,0.8-1.79,1.79-1.79
			S47.09,55.63,47.09,56.61z"/>
		<path class="st41" d="M45.18,59.96c0,0.99-0.8,1.79-1.79,1.79c-0.99,0-1.79-0.8-1.79-1.79c0-0.99,0.8-1.79,1.79-1.79
			C44.38,58.17,45.18,58.97,45.18,59.96z"/>
		<path class="st41" d="M47.09,63.3c0,0.99-0.8,1.79-1.79,1.79s-1.79-0.8-1.79-1.79c0-0.99,0.8-1.79,1.79-1.79
			S47.09,62.31,47.09,63.3z"/>
		<path class="st41" d="M49,59.96c0,0.99-0.8,1.79-1.79,1.79c-0.99,0-1.79-0.8-1.79-1.79c0-0.99,0.8-1.79,1.79-1.79
			C48.2,58.17,49,58.97,49,59.96z"/>
		<path class="st41" d="M50.91,56.61c0,0.99-0.8,1.79-1.79,1.79s-1.79-0.8-1.79-1.79c0-0.99,0.8-1.79,1.79-1.79
			S50.91,55.63,50.91,56.61z"/>
	</g>
	<path class="st7" d="M54.08,78.03L42.19,89.92C21.1,88.62,3.94,72.79,0.6,52.32l41.81-41.8c-0.09,0.13-0.14,0.29-0.14,0.46v2.97
		h-0.64c-0.44,0-0.79,0.44-0.79,0.99v2.22c0,0.55,0.35,1,0.79,1h-0.1v17.11c-3.57,1.39-6.1,4.86-6.1,8.93c0,0.21,0,0.41,0.01,0.61
		c-0.01,0.07-0.01,0.14-0.01,0.21v31.94c0,0.83,0.74,1.51,1.66,1.51h15.82C53.37,78.47,53.78,78.3,54.08,78.03z"/>
</g>
</svg>
